<svg xmlns="http://www.w3.org/2000/svg" xmlns:xlink="http://www.w3.org/1999/xlink" viewBox="0 0 715 559"><defs><style>.cls-1{fill:#e2ebf7;}.cls-2{fill:#acc2e0;}.cls-3{opacity:0.23;fill:url(#radial-gradient);}</style><radialGradient id="radial-gradient" cx="501" cy="226" r="193" gradientUnits="userSpaceOnUse"><stop offset="0" stop-color="#cce0f4"/><stop offset="0.06" stop-color="#c3dcf2"/><stop offset="0.17" stop-color="#a9d2ee"/><stop offset="0.31" stop-color="#80c2e7"/><stop offset="0.46" stop-color="#47acde"/><stop offset="0.57" stop-color="#1e9cd7"/><stop offset="0.87" stop-color="#0075be"/><stop offset="0.99" stop-color="#005b97"/></radialGradient></defs><title>magnifying glass</title><g id="Layer_5" data-name="Layer 5"><rect class="cls-1" x="166.12" y="290.78" width="46.9" height="268.71" transform="translate(462.85 48.31) rotate(59.98)"/><rect class="cls-2" x="262.67" y="302.28" width="74.3" height="118.33" rx="6.6" ry="6.6" transform="translate(462.78 -78.98) rotate(59.98)"/><rect class="cls-2" x="36.09" y="433.19" width="74.3" height="118.33" rx="6.6" ry="6.6" transform="translate(462.91 182.63) rotate(59.98)"/><circle class="cls-3" cx="501" cy="226" r="193"/><path class="cls-1" d="M501.5,9C381.93,9,285,105.93,285,225.5S381.93,442,501.5,442,718,345.07,718,225.5,621.07,9,501.5,9Zm0,395.35A178.85,178.85,0,1,1,680.35,225.5,178.86,178.86,0,0,1,501.5,404.35Z"/></g></svg>