<svg id="Layer_1" data-name="Layer 1" xmlns="http://www.w3.org/2000/svg" xmlns:xlink="http://www.w3.org/1999/xlink" viewBox="0 0 640 640.75"><defs><style>.cls-1,.cls-13,.cls-7{fill:none;}.cls-2{clip-path:url(#clip-path);}.cls-3{fill:url(#linear-gradient);}.cls-4{fill:#e5e5e5;}.cls-5{fill:#fff;}.cls-6{fill:silver;}.cls-13,.cls-7{stroke:#e8e8e8;stroke-linecap:round;}.cls-7{stroke-linejoin:round;stroke-width:2.92px;}.cls-8{fill:#00e5d0;}.cls-9{fill:#fcfcfc;}.cls-10{fill:#515151;}.cls-11{fill:#868686;}.cls-12{fill:#c5c5c5;}.cls-13{stroke-linejoin:bevel;stroke-width:2.94px;}</style><clipPath id="clip-path"><circle class="cls-1" cx="320" cy="320" r="320"/></clipPath><linearGradient id="linear-gradient" x1="159.97" y1="40.83" x2="480.03" y2="595.17" gradientTransform="matrix(1, 0, 0, -1, 0, 638)" gradientUnits="userSpaceOnUse"><stop offset="0" stop-color="#3496d9"/><stop offset="1" stop-color="#00e3ce"/></linearGradient></defs><title>spaceman-roundX</title><g class="cls-2"><circle class="cls-3" cx="320" cy="320" r="320"/><rect class="cls-4" x="252.58" y="336.26" width="90.06" height="248" rx="11.8" ry="11.8" transform="translate(-191.02 708.55) rotate(-84.05)"/><rect class="cls-5" x="162.71" y="428.06" width="253.69" height="207" rx="15" ry="15" transform="translate(-270.89 760.26) rotate(-83.62)"/><ellipse class="cls-6" cx="306.74" cy="402.02" rx="71.5" ry="106.12" transform="matrix(0.18, -0.98, 0.98, 0.18, -143.81, 631.62)"/><path class="cls-5" d="M70.45,378.16c1.65,37.52,56.46,109.06,123.49,121.44a3.39,3.39,0,0,0,4-3.33V434.21a3.37,3.37,0,0,0-1.75-3c-9.3-5.12-65-37.18-66.69-76.14v.2l-1.61-36.67A31.59,31.59,0,0,0,95,288.51h0A31.59,31.59,0,0,0,65,321.4"/><rect class="cls-4" x="211.72" y="601.02" width="20.84" height="32.26" rx="1.33" ry="1.33" transform="translate(-415.88 769.33) rotate(-83.62)"/><rect class="cls-4" x="259.18" y="596.67" width="42.23" height="32.26" rx="1.88" ry="1.88" transform="matrix(0.11, -0.99, 0.99, 0.11, -359.86, 823.26)"/><rect class="cls-4" x="324.63" y="613.75" width="20.84" height="32.26" rx="1.33" ry="1.33" transform="translate(-328.16 892.87) rotate(-83.62)"/><path class="cls-7" d="M69.42,349.07s36.13,14.57,58.19-7.17"/><polygon class="cls-8" points="165 410.1 119.36 459.93 132.12 471.02 178.31 420.11 165 410.1"/><circle class="cls-9" cx="326.36" cy="297.4" r="164"/><circle class="cls-10" cx="320.22" cy="314.35" r="127"/><circle class="cls-11" cx="345.27" cy="307.53" r="70"/><circle class="cls-5" cx="356.15" cy="256.12" r="10.5"/><path class="cls-5" d="M378.53,266.25a24.23,24.23,0,0,1,10.87,9.65c5.79,8.32,11.79,17.2,12.41,27.32"/><path class="cls-5" d="M375.49,271.37c6.08,3.39,9.34,8.08,13,13.86,3.51,5.48,6.73,11.36,7.32,18,.68,7.56,12.6,7.72,11.91.09-.8-8.82-4.16-16.56-8.91-24s-9.4-13.76-17.28-18.16c-6.69-3.74-12.78,6.5-6.08,10.24Z"/><rect class="cls-9" x="112.92" y="258.62" width="93" height="30" rx="12" ry="12" transform="matrix(0.11, -0.99, 0.99, 0.11, -130.22, 401.65)"/><rect class="cls-10" x="126.39" y="266.66" width="58.58" height="14.35" rx="6.59" ry="6.59" transform="translate(-133.76 398.12) rotate(-83.62)"/><rect class="cls-9" x="442.62" y="301.03" width="93" height="30" rx="12" ry="12" transform="matrix(0.11, -0.99, 0.99, 0.11, 120.69, 766.99)"/><rect class="cls-10" x="464.58" y="309.65" width="58.58" height="13.35" rx="6.36" ry="6.36" transform="translate(124.63 771.98) rotate(-83.62)"/><path class="cls-12" d="M248.8,487.58l89.14,9.29a1.37,1.37,0,0,1,1.22,1.51h0a1.37,1.37,0,0,1-1.51,1.23l-89.14-9.29a1.38,1.38,0,0,1-1.23-1.51h0A1.38,1.38,0,0,1,248.8,487.58Z"/><path class="cls-8" d="M248.08,494.43l89.14,9.29a1.37,1.37,0,0,1,1.23,1.51h0a1.38,1.38,0,0,1-1.52,1.23l-89.13-9.29a1.38,1.38,0,0,1-1.23-1.52h0A1.37,1.37,0,0,1,248.08,494.43Z"/><path class="cls-12" d="M247.36,501.28l89.14,9.29a1.38,1.38,0,0,1,1.23,1.52h0a1.38,1.38,0,0,1-1.51,1.23L247.08,504a1.38,1.38,0,0,1-1.23-1.52h0A1.39,1.39,0,0,1,247.36,501.28Z"/><path class="cls-12" d="M246.65,508.14l89.13,9.29A1.38,1.38,0,0,1,337,519h0a1.37,1.37,0,0,1-1.51,1.23l-89.14-9.29a1.38,1.38,0,0,1-1.23-1.52h0A1.38,1.38,0,0,1,246.65,508.14Z"/><path class="cls-12" d="M245.94,515l89.14,9.29a1.38,1.38,0,0,1,1.23,1.52h0a1.38,1.38,0,0,1-1.52,1.23l-89.14-9.29a1.4,1.4,0,0,1-1.23-1.52h0A1.38,1.38,0,0,1,245.94,515Z"/><rect class="cls-4" x="287.26" y="511.82" width="2.76" height="47.08" rx="0.99" ry="0.99" transform="translate(-273.76 766.95) rotate(-84.05)"/><rect class="cls-4" x="286.53" y="518.67" width="2.76" height="47.08" rx="0.99" ry="0.99" transform="translate(-281.22 772.37) rotate(-84.05)"/><rect class="cls-4" x="285.82" y="525.53" width="2.76" height="47.08" rx="0.99" ry="0.99" transform="translate(-288.68 777.81) rotate(-84.05)"/><rect class="cls-4" x="285.11" y="532.38" width="2.76" height="47.08" rx="0.99" ry="0.99" transform="translate(-296.13 783.24) rotate(-84.05)"/><rect class="cls-4" x="284.39" y="539.24" width="2.76" height="47.08" rx="0.99" ry="0.99" transform="translate(-303.6 788.67) rotate(-84.05)"/><rect class="cls-4" x="274.95" y="568.04" width="2.84" height="146.09" rx="1.32" ry="1.32" transform="translate(-391.46 844.5) rotate(-83.62)"/><path class="cls-5" d="M541.38,458c-16.83,33.57-96.08,76.48-162.32,60.4a3.38,3.38,0,0,1-2.48-4.09,4,4,0,0,1,.2-.58l25.34-56.65a3.38,3.38,0,0,1,2.81-2c10.58-.87,74.5-7.39,92-42.26l-.09.18,16.45-32.81a31.59,31.59,0,0,1,42.28-14h0a31.59,31.59,0,0,1,14,42.28"/><path class="cls-13" d="M555.16,432.3s-39.3-1.62-50.78-30.58"/><polygon class="cls-8" points="442.04 448.55 463.35 512.67 447.17 517.59 425.79 452.25 442.04 448.55"/><rect class="cls-11" x="128.09" y="272.52" width="49.24" height="2" rx="0.86" ry="0.86" transform="translate(-136.09 394.89) rotate(-83.62)"/><rect class="cls-11" x="133.05" y="273.09" width="49.24" height="2" rx="0.86" ry="0.86" transform="translate(-132.24 400.33) rotate(-83.62)"/><rect class="cls-11" x="466.78" y="315.02" width="49.24" height="2" rx="0.86" ry="0.86" transform="translate(122.73 769.26) rotate(-83.62)"/><rect class="cls-11" x="471.75" y="315.57" width="49.24" height="2" rx="0.86" ry="0.86" transform="translate(126.6 774.69) rotate(-83.62)"/><rect class="cls-12" x="280.35" y="586.25" width="2.76" height="26.11" rx="0.74" ry="0.74" transform="translate(-343.55 817.39) rotate(-84.05)"/><rect class="cls-12" x="279.65" y="593.1" width="2.76" height="26.11" rx="0.74" ry="0.74" transform="translate(-350.99 822.83) rotate(-84.05)"/><rect class="cls-12" x="278.92" y="599.96" width="2.76" height="26.11" rx="0.74" ry="0.74" transform="translate(-358.47 828.26) rotate(-84.05)"/><rect class="cls-12" x="278.21" y="606.81" width="2.76" height="26.11" rx="0.74" ry="0.74" transform="translate(-365.91 833.69) rotate(-84.05)"/><rect class="cls-12" x="277.5" y="613.66" width="2.76" height="26.11" rx="0.74" ry="0.74" transform="translate(-373.38 839.13) rotate(-84.05)"/><rect class="cls-12" x="221.24" y="600.82" width="2.76" height="26.11" rx="0.74" ry="0.74" transform="translate(-411.03 771.66) rotate(-84.05)"/><rect class="cls-12" x="220.53" y="607.67" width="2.76" height="26.11" rx="0.74" ry="0.74" transform="translate(-418.47 777.1) rotate(-84.05)"/><rect class="cls-12" x="334.15" y="613.64" width="2.76" height="26.11" rx="0.74" ry="0.74" transform="translate(-322.56 895.46) rotate(-84.05)"/><rect class="cls-12" x="333.45" y="620.49" width="2.76" height="26.11" rx="0.74" ry="0.74" transform="translate(-330.01 900.89) rotate(-84.05)"/></g></svg>