<svg id="Layer_1" data-name="Layer 1" xmlns="http://www.w3.org/2000/svg" viewBox="0 0 123.67 260.33"><defs><style>.cls-1{fill:#acc2e0;}</style></defs><title>new links</title><polygon class="cls-1" points="41.68 193.66 59.38 224.31 77.08 254.97 41.68 254.97 6.28 254.97 23.98 224.31 41.68 193.66"/><polygon class="cls-1" points="41.68 132.08 59.38 162.74 77.08 193.39 41.68 193.39 6.28 193.39 23.98 162.74 41.68 132.08"/><polygon class="cls-1" points="41.68 70.5 59.38 101.16 77.08 131.82 41.68 131.82 6.28 131.82 23.98 101.16 41.68 70.5"/><polygon class="cls-1" points="41.68 8.92 59.38 39.58 77.08 70.24 41.68 70.24 6.28 70.24 23.98 39.58 41.68 8.92"/><path class="cls-1" d="M108.65,62h-4.93V60h7.56v1.74l-4.71,8.76H104Z"/><path class="cls-1" d="M112.49,65.28v0c0-3,1.9-5.43,4.69-5.43s4.64,2.36,4.64,5.4v0c0,3-1.87,5.43-4.67,5.43S112.49,68.32,112.49,65.28Zm7,0v0c0-1.9-.93-3.35-2.31-3.35s-2.28,1.4-2.28,3.32v0c0,1.92.91,3.34,2.31,3.34S119.46,67.18,119.46,65.28Z"/><path class="cls-1" d="M102.84,130.42l1.4-1.66a3.69,3.69,0,0,0,2.5,1.14c1.08,0,1.76-.53,1.76-1.46v0c0-.9-.76-1.42-1.86-1.42a4.46,4.46,0,0,0-1.75.39l-1.34-.89.3-5.17h6.45v2h-4.47l-.12,1.82a4.92,4.92,0,0,1,1.38-.18c2,0,3.67,1,3.67,3.36v0c0,2.22-1.57,3.63-4,3.63A5.41,5.41,0,0,1,102.84,130.42Z"/><path class="cls-1" d="M112.46,126.6v0c0-3,1.89-5.43,4.68-5.43s4.65,2.35,4.65,5.4v0c0,3-1.88,5.43-4.68,5.43S112.46,129.64,112.46,126.6Zm7,0v0c0-1.91-.93-3.35-2.31-3.35s-2.28,1.4-2.28,3.32v0c0,1.92.91,3.34,2.31,3.34S119.42,128.5,119.42,126.6Z"/><path class="cls-1" d="M102.77,191.76l1.59-1.52a3.21,3.21,0,0,0,2.54,1.26,1.31,1.31,0,0,0,1.48-1.27v0c0-.86-.76-1.34-2.06-1.34h-.95l-.37-1.47,2.51-2.52h-4.12v-2h7.09v1.74l-2.66,2.54c1.43.24,2.83,1,2.83,2.94v0c0,2-1.44,3.43-3.78,3.43A5.12,5.12,0,0,1,102.77,191.76Z"/><path class="cls-1" d="M112.32,188.17v0c0-3,1.9-5.43,4.68-5.43s4.65,2.36,4.65,5.4v0c0,3.05-1.87,5.43-4.67,5.43S112.32,191.22,112.32,188.17Zm7,0v0c0-1.9-.93-3.34-2.3-3.34s-2.29,1.39-2.29,3.31v0c0,1.92.92,3.35,2.31,3.35S119.28,190.08,119.28,188.17Z"/><path class="cls-1" d="M111.84,253.58l1.4-1.67a3.69,3.69,0,0,0,2.5,1.14c1.08,0,1.76-.52,1.76-1.45v0c0-.9-.76-1.43-1.86-1.43a4.46,4.46,0,0,0-1.75.39l-1.34-.88.3-5.18h6.45v2h-4.47l-.12,1.81a5.31,5.31,0,0,1,1.38-.18c2,0,3.67,1,3.67,3.36v0c0,2.22-1.57,3.63-4,3.63A5.44,5.44,0,0,1,111.84,253.58Z"/><path class="cls-1" d="M96.9,6.43l-1.83.45L94.59,5l3-.9h1.57V14.67H96.9Z"/><path class="cls-1" d="M101.37,9.45v0c0-3,1.89-5.43,4.68-5.43s4.65,2.35,4.65,5.4v0c0,3-1.87,5.43-4.68,5.43S101.37,12.49,101.37,9.45Zm7,0v0c0-1.91-.93-3.35-2.31-3.35s-2.28,1.4-2.28,3.32v0c0,1.92.92,3.34,2.31,3.34S108.33,11.35,108.33,9.45Z"/><path class="cls-1" d="M112.32,9.45v0c0-3,1.89-5.43,4.68-5.43s4.65,2.35,4.65,5.4v0c0,3-1.87,5.43-4.68,5.43S112.32,12.49,112.32,9.45Zm7,0v0c0-1.91-.93-3.35-2.31-3.35s-2.28,1.4-2.28,3.32v0c0,1.92.92,3.34,2.31,3.34S119.28,11.35,119.28,9.45Z"/></svg>