<svg xmlns="http://www.w3.org/2000/svg" viewBox="-1906.109 899.916 22.049 22.049"><defs><style>.a{fill:#e2ebf7;}.b{fill:#acc2e0;}.c{fill:#71c386;}.d{fill:#fff;}</style></defs><g transform="translate(-2169 -187)"><g transform="translate(262.892 1086.916)"><path class="a" d="M192.472,1.514a5.167,5.167,0,0,1,0,7.308l-4.258,4.259a5.17,5.17,0,0,1-8.539-1.966l.091-.091c-.091.091,1.6-1.63,1.6-1.63l1.6,1.63a2.262,2.262,0,0,0,3.2,0l.091-.091,4.168-4.168a2.26,2.26,0,0,0-3.2-3.2l-4.168,4.168-1.689.687-1.689-.687A5.148,5.148,0,0,1,180.9,5.772l4.259-4.258A5.167,5.167,0,0,1,192.472,1.514Z" transform="translate(-171.937)"/><path class="b" d="M11.114,173.4a5.183,5.183,0,0,1,3.2,3.2l-.091.091a2.262,2.262,0,0,1-3.2,0,2.263,2.263,0,0,0-3.2,0l-.091.091-4.168,4.168a2.26,2.26,0,0,0,3.2,3.2l4.168-4.168a5.191,5.191,0,0,0,3.378,0,5.146,5.146,0,0,1-1.231,1.965l-4.258,4.259a5.168,5.168,0,1,1-7.309-7.309l4.259-4.258a5.164,5.164,0,0,1,5.343-1.231Z" transform="translate(0 -165.659)"/></g><g transform="translate(272.72 1098.048)"><circle class="c" cx="5.311" cy="5.311" r="5.311"/><path class="d" d="M43.254,41.655H41.041V39.443a.443.443,0,0,0-.885,0v2.213H37.943a.443.443,0,1,0,0,.885h2.213v2.213a.443.443,0,1,0,.885,0V42.541h2.213a.443.443,0,1,0,0-.885Z" transform="translate(-35.287 -36.787)"/></g></g></svg>