<svg xmlns="http://www.w3.org/2000/svg" viewBox="-1905 653 24.342 25.669"><defs><style>.a{fill:#e2ebf7;}.b{fill:#acc2e0;}.c{fill:#71c386;}.d{fill:#fff;}</style></defs><g transform="translate(-1906.5 653)"><g transform="translate(1.5)"><path class="a" d="M21.416,6.2,15.22,0H1.5V25.669H21.416Z" transform="translate(-1.5)"/><g transform="translate(3.983 5.754)"><path class="b" d="M10.943,21.885H22.007a.443.443,0,0,0,0-.885H10.943a.443.443,0,1,0,0,.885Z" transform="translate(-10.5 -17.459)"/><path class="b" d="M10.943,13.885h4.426a.443.443,0,0,0,0-.885H10.943a.443.443,0,1,0,0,.885Z" transform="translate(-10.5 -13)"/><path class="b" d="M22.007,29H10.943a.443.443,0,1,0,0,.885H22.007a.443.443,0,1,0,0-.885Z" transform="translate(-10.5 -21.919)"/><path class="b" d="M22.007,37H10.943a.443.443,0,1,0,0,.885H22.007a.443.443,0,1,0,0-.885Z" transform="translate(-10.5 -26.378)"/><path class="b" d="M22.007,45H10.943a.443.443,0,0,0,0,.885H22.007a.443.443,0,0,0,0-.885Z" transform="translate(-10.5 -30.838)"/></g><path class="b" d="M32.5,0V6.2h6.2Z" transform="translate(-18.78)"/></g><g transform="translate(15.22 15.048)"><circle class="c" cx="5.311" cy="5.311" r="5.311"/><path class="d" d="M43.254,41.655H41.041V39.443a.443.443,0,0,0-.885,0v2.213H37.943a.443.443,0,1,0,0,.885h2.213v2.213a.443.443,0,1,0,.885,0V42.541h2.213a.443.443,0,1,0,0-.885Z" transform="translate(-35.287 -36.787)"/></g></g></svg>