<svg xmlns="http://www.w3.org/2000/svg" viewBox="-1908 980 24.967 25.892"><defs><style>.a{fill:#e2ebf7;}.b{fill:#acc2e0;}.c{fill:#71c386;}.d{fill:#fff;}</style></defs><g transform="translate(-1909 980)"><path class="a" d="M24.244,0H18.151L6.848,11.266l10.974,11,11.29-11.253V4.857ZM23.57,6.875a1.357,1.357,0,1,1,1.357-1.357A1.357,1.357,0,0,1,23.57,6.875Z" transform="translate(-3.144)"/><path class="b" d="M3.717,24.354,1,27.064l10.974,11L14.7,35.339Z" transform="translate(0 -13.094)"/><path class="b" d="M39.286,6.849a1.357,1.357,0,1,1-1.357,1.357,1.357,1.357,0,0,1,1.357-1.357m0-1.849a3.206,3.206,0,1,0,3.206,3.206A3.21,3.21,0,0,0,39.286,5Z" transform="translate(-18.86 -2.688)"/><g transform="translate(12.097 14.795)"><circle class="c" cx="5.548" cy="5.548" r="5.548"/><path class="d" d="M36.011,39.774H33.7V37.462a.462.462,0,0,0-.925,0v2.312H30.462a.462.462,0,1,0,0,.925h2.312v2.312a.462.462,0,0,0,.925,0V40.7h2.312a.462.462,0,0,0,0-.925Z" transform="translate(-27.688 -34.688)"/></g></g></svg>