<?xml version="1.0" encoding="UTF-8" standalone="no"?>
<!DOCTYPE svg PUBLIC "-//W3C//DTD SVG 1.1//EN" "http://www.w3.org/Graphics/SVG/1.1/DTD/svg11.dtd">
<svg version="1.1" xmlns="http://www.w3.org/2000/svg" xmlns:xlink="http://www.w3.org/1999/xlink" preserveAspectRatio="xMidYMid meet" viewBox="90.34888888888892 145.69703703703695 437.0799999999999 334.68000000000006" width="430.08" height="327.68"><defs><path d="M334.9 476.88C329.61 476.88 325.95 472.72 324.77 468.22C319.28 450 291.87 358.9 242.52 194.92C213.91 289.71 198.01 342.37 194.83 352.9C193.53 357.22 189.54 360.18 185.03 360.18C176.93 360.18 112.18 360.18 104.09 360.18C98.44 360.18 93.85 355.59 93.85 349.94C93.85 344.29 98.44 339.7 104.09 339.7C108.98 339.7 133.42 339.7 177.42 339.7C210.61 229.77 229.04 168.69 232.73 156.48C234.03 152.16 238.02 149.2 242.53 149.2C242.53 149.2 242.53 149.2 242.54 149.2C247.05 149.2 251.04 152.16 252.34 156.49C257.85 174.79 285.39 266.29 334.95 430.99C368.98 318.23 387.88 255.6 391.66 243.07C392.97 238.74 396.95 235.79 401.47 235.79C401.47 235.79 401.47 235.79 401.47 235.79C405.99 235.79 409.97 238.75 411.27 243.07C413.21 249.51 422.91 281.72 440.37 339.7C484.36 339.7 508.8 339.7 513.69 339.7C519.34 339.7 523.93 344.29 523.93 349.94C523.93 355.59 519.34 360.18 513.69 360.18C505.6 360.18 440.85 360.18 432.75 360.18C428.23 360.18 424.25 357.22 422.95 352.89C421.51 348.13 414.35 324.34 401.46 281.51C367.4 394.36 348.48 457.06 344.69 469.6C343.37 473.97 339.35 476.88 334.9 476.88C334.4 476.88 335.41 476.88 334.9 476.88Z" id="ajSjrukRI"></path></defs><g><g><use xlink:href="#ajSjrukRI" opacity="1" fill="#ffffff" fill-opacity="1"></use><g><use xlink:href="#ajSjrukRI" opacity="1" fill-opacity="0" stroke="#ffffff" stroke-width="7" stroke-opacity="1"></use></g></g></g></svg>