<?xml version="1.0" encoding="UTF-8" standalone="no"?>
<!DOCTYPE svg PUBLIC "-//W3C//DTD SVG 1.1//EN" "http://www.w3.org/Graphics/SVG/1.1/DTD/svg11.dtd">
<svg version="1.1" xmlns="http://www.w3.org/2000/svg" xmlns:xlink="http://www.w3.org/1999/xlink" preserveAspectRatio="xMidYMid meet" viewBox="-1 -1 644 644" width="640" height="640"><defs><path d="M320 0C143.27 0 0 143.27 0 320C0 496.73 143.27 640 320 640C496.73 640 640 496.73 640 320C640 143.27 496.73 0 320 0Z" id="b3b5sn3M0T"></path><path d="M346.68 346.68C426.67 346.68 471.1 346.68 479.99 346.68C494.72 346.68 506.66 334.74 506.66 320.01C506.66 305.28 494.72 293.34 479.99 293.34C471.1 293.34 426.67 293.34 346.68 293.34C346.68 213.35 346.68 168.91 346.68 160.03C346.68 145.3 334.74 133.35 320.01 133.35C305.28 133.35 293.34 145.3 293.34 160.03C293.34 168.91 293.34 213.35 293.34 293.34C213.33 293.34 168.88 293.34 159.99 293.34C145.26 293.34 133.32 305.28 133.32 320.01C133.32 334.74 145.26 346.68 159.99 346.68C168.88 346.68 213.33 346.68 293.34 346.68C293.34 426.69 293.34 471.14 293.34 480.03C293.34 494.76 305.28 506.7 320.01 506.7C334.74 506.7 346.68 494.76 346.68 480.03C346.68 462.25 346.68 417.8 346.68 346.68Z" id="d5GI8DQZO"></path></defs><g><g><use xlink:href="#b3b5sn3M0T" opacity="1" fill="#3498db" fill-opacity="1"></use><g><use xlink:href="#b3b5sn3M0T" opacity="1" fill-opacity="0" stroke="#000000" stroke-width="1" stroke-opacity="0"></use></g></g><g><use xlink:href="#d5GI8DQZO" opacity="1" fill="#ffffff" fill-opacity="1"></use><g><use xlink:href="#d5GI8DQZO" opacity="1" fill-opacity="0" stroke="#000000" stroke-width="1" stroke-opacity="0"></use></g></g></g></svg>