<svg xmlns="http://www.w3.org/2000/svg" viewBox="-652.267 2124 35 35"><defs><style>.a{fill:#e2ebf7;}.b{fill:rgba(172,194,224,0.39);}.c{fill:#fff;}.d{fill:#f5f9fc;}.e{fill:#00e5d0;}</style></defs><g transform="translate(-652.267 2124)"><circle class="a" cx="17.5" cy="17.5" r="17.5"/><path class="b" d="M210.048,128.5l-11.663,19.7,6.349,6.349a17.5,17.5,0,0,0,15.058-16.305Z" transform="translate(-184.824 -119.712)"/><g transform="translate(7.365 6.127)"><path class="c" d="M107.744,98.607c0-6.2,4.537-8.978,10.135-8.978s10.135,2.78,10.135,8.978c0,5.407-6.152,15.712-10.135,15.712C113.845,114.319,107.744,104.049,107.744,98.607Z" transform="translate(-107.744 -89.629)"/></g><g transform="translate(17.5 6.127)"><path class="d" d="M256,89.629c5.6,0,10.135,2.78,10.135,8.978,0,5.407-6.152,15.712-10.135,15.712Z" transform="translate(-256 -89.629)"/></g><g transform="translate(11.038 19.759)"><path class="e" d="M166.219,292.55a3.619,3.619,0,0,0-4.744-3.322,3.461,3.461,0,0,0,1.541,2.847A3.619,3.619,0,0,0,166.219,292.55Z" transform="translate(-161.474 -289.049)"/><g transform="translate(8.179)"><path class="e" d="M281.116,292.55a3.619,3.619,0,0,1,4.744-3.322,3.461,3.461,0,0,1-1.541,2.847A3.619,3.619,0,0,1,281.116,292.55Z" transform="translate(-281.116 -289.049)"/></g></g></g></svg>