<?xml version="1.0" encoding="UTF-8" standalone="no"?>
<!DOCTYPE svg PUBLIC "-//W3C//DTD SVG 1.1//EN" "http://www.w3.org/Graphics/SVG/1.1/DTD/svg11.dtd">
<svg version="1.1" xmlns="http://www.w3.org/2000/svg" xmlns:xlink="http://www.w3.org/1999/xlink" preserveAspectRatio="xMidYMid meet" viewBox="88.82649558529232 217.94931284677565 469.0134531983194 265.8636234928763" width="465.01" height="261.86"><defs><path d="M528.19 219.09L529.36 219.23L530.51 219.42L531.64 219.64L532.76 219.91L533.86 220.23L534.94 220.58L536.01 220.97L537.05 221.4L538.08 221.87L539.08 222.38L540.06 222.93L541.02 223.51L541.95 224.12L542.86 224.77L543.74 225.45L544.59 226.16L545.42 226.9L546.22 227.68L546.99 228.48L547.73 229.31L548.44 230.17L549.11 231.06L549.76 231.97L550.36 232.9L550.94 233.87L551.48 234.85L551.98 235.85L552.44 236.88L552.87 237.93L553.26 238.99L553.61 240.08L553.91 241.18L554.18 242.3L554.4 243.44L554.58 244.59L554.71 245.75L554.8 246.93L554.84 248.12L554.84 248.69L554.82 249.27L554.79 249.84L554.75 250.41L554.7 250.98L554.64 251.55L554.56 252.11L554.48 252.67L554.38 253.23L554.27 253.79L554.16 254.34L554.03 254.9L553.88 255.44L553.73 255.99L553.57 256.53L553.39 257.07L553.21 257.6L553.01 258.13L552.81 258.66L552.59 259.18L552.37 259.69L552.13 260.21L551.88 260.71L551.62 261.21L551.35 261.71L551.07 262.2L550.79 262.69L550.49 263.17L550.18 263.65L549.86 264.11L549.53 264.58L549.2 265.03L548.85 265.48L548.49 265.93L548.12 266.37L547.75 266.8L547.36 267.22L546.97 267.63L546.56 268.04L546.15 268.44L342.59 472.16L341.76 472.98L340.89 473.77L340.01 474.52L339.1 475.22L338.17 475.88L337.22 476.5L336.25 477.08L335.26 477.62L334.26 478.11L333.24 478.57L332.21 478.98L331.17 479.35L330.11 479.68L329.05 479.96L327.98 480.21L326.9 480.41L325.81 480.58L324.72 480.7L323.63 480.78L322.53 480.81L321.44 480.81L320.34 480.76L319.25 480.67L318.16 480.54L317.07 480.37L315.99 480.16L314.92 479.9L313.86 479.6L312.8 479.26L311.76 478.88L310.73 478.46L309.71 477.99L308.71 477.48L307.72 476.93L306.76 476.34L305.81 475.71L304.88 475.03L303.97 474.31L303.08 473.55L302.22 472.75L302.19 472.72L302.16 472.69L302.13 472.66L302.1 472.63L302.07 472.6L302.04 472.57L302.02 472.54L301.99 472.51L301.96 472.48L301.93 472.45L301.9 472.42L301.87 472.4L301.84 472.37L301.81 472.34L301.78 472.31L301.75 472.28L301.72 472.25L301.69 472.22L301.66 472.19L301.63 472.16L98.07 268.44L97.25 267.56L96.48 266.66L95.74 265.73L95.05 264.78L94.4 263.81L93.8 262.82L93.23 261.82L92.72 260.79L92.24 259.76L91.81 258.7L91.41 257.64L91.07 256.56L90.76 255.47L90.5 254.38L90.28 253.28L90.1 252.17L89.97 251.05L89.88 249.94L89.83 248.82L89.83 247.7L89.86 246.58L89.94 245.46L90.07 244.35L90.23 243.24L90.44 242.13L90.69 241.04L90.98 239.95L91.32 238.87L91.7 237.81L92.12 236.75L92.58 235.71L93.09 234.69L93.64 233.68L94.23 232.69L94.86 231.72L95.54 230.77L96.26 229.84L97.02 228.93L97.82 228.05L98.66 227.2L99.07 226.81L99.48 226.44L99.89 226.07L100.32 225.71L100.75 225.36L101.18 225.02L101.62 224.68L102.07 224.36L102.52 224.04L102.98 223.74L103.44 223.44L103.91 223.15L104.38 222.87L104.86 222.6L105.34 222.34L105.83 222.09L106.32 221.84L106.82 221.61L107.32 221.39L107.82 221.17L108.33 220.97L108.84 220.77L109.36 220.58L109.88 220.41L110.4 220.24L110.92 220.08L111.45 219.94L111.99 219.8L112.52 219.67L113.06 219.56L113.6 219.45L114.14 219.35L114.69 219.27L115.23 219.19L115.78 219.12L116.33 219.07L116.89 219.02L117.44 218.99L118 218.96L118.55 218.95L525.83 218.95L527.02 219L528.19 219.09Z" id="c6UWWacdeh"></path></defs><g><g><use xlink:href="#c6UWWacdeh" opacity="1" fill="#ffffff" fill-opacity="1"></use><g><use xlink:href="#c6UWWacdeh" opacity="1" fill-opacity="0" stroke="#000000" stroke-width="1" stroke-opacity="0"></use></g></g></g></svg>