<?xml version="1.0" encoding="UTF-8" standalone="no"?>
<!DOCTYPE svg PUBLIC "-//W3C//DTD SVG 1.1//EN" "http://www.w3.org/Graphics/SVG/1.1/DTD/svg11.dtd">
<svg version="1.1" xmlns="http://www.w3.org/2000/svg" xmlns:xlink="http://www.w3.org/1999/xlink" preserveAspectRatio="xMidYMid meet" viewBox="95.93038238123562 153.50350766533032 460.5032568408217 261.0696175057259" width="456.5" height="257.07"><defs><path d="M528.42 154.78L529.55 154.96L530.66 155.18L531.76 155.45L532.84 155.76L533.9 156.1L534.95 156.49L535.97 156.91L536.98 157.37L537.96 157.87L538.92 158.41L539.87 158.98L540.78 159.58L541.67 160.22L542.54 160.88L543.37 161.58L544.19 162.31L544.97 163.07L545.73 163.86L546.45 164.67L547.15 165.52L547.81 166.39L548.45 167.29L549.04 168.2L549.6 169.15L550.14 170.11L550.63 171.09L551.08 172.11L551.5 173.14L551.88 174.18L552.23 175.25L552.52 176.33L552.79 177.43L553 178.55L553.18 179.67L553.31 180.81L553.39 181.97L553.43 183.14L553.43 183.7L553.41 184.27L553.38 184.83L553.35 185.39L553.3 185.95L553.24 186.51L553.16 187.06L553.08 187.61L552.98 188.16L552.87 188.71L552.77 189.25L552.64 189.8L552.49 190.33L552.34 190.87L552.19 191.4L552.01 191.93L551.83 192.45L551.64 192.97L551.44 193.49L551.22 194L551.01 194.5L550.77 195.01L550.53 195.5L550.27 195.99L550.01 196.48L549.73 196.96L549.46 197.44L549.16 197.91L548.86 198.39L548.54 198.84L548.22 199.3L547.9 199.74L547.55 200.18L547.2 200.62L546.84 201.06L546.47 201.48L546.09 201.89L545.71 202.29L545.31 202.7L544.9 203.09L345.07 403.08L344.25 403.89L343.4 404.66L342.53 405.4L341.64 406.09L340.73 406.73L339.79 407.34L338.84 407.91L337.87 408.44L336.89 408.92L335.89 409.37L334.88 409.78L333.86 410.14L332.81 410.46L331.77 410.74L330.72 410.98L329.66 411.18L328.59 411.35L327.52 411.47L326.45 411.54L325.37 411.57L324.3 411.57L323.22 411.52L322.15 411.44L321.08 411.31L320.01 411.14L318.95 410.94L317.9 410.68L316.86 410.39L315.82 410.05L314.8 409.68L313.79 409.27L312.79 408.8L311.81 408.3L310.83 407.76L309.89 407.18L308.96 406.57L308.05 405.9L307.15 405.19L306.28 404.45L305.43 403.66L305.41 403.63L305.38 403.6L305.35 403.57L305.32 403.54L305.29 403.51L305.26 403.48L305.24 403.45L305.21 403.42L305.18 403.4L305.15 403.37L305.12 403.34L305.09 403.32L305.06 403.29L305.03 403.26L305 403.23L304.97 403.2L304.94 403.17L304.91 403.14L304.89 403.11L304.86 403.08L105.02 203.09L104.21 202.22L103.46 201.34L102.73 200.43L102.05 199.5L101.42 198.54L100.83 197.57L100.27 196.59L99.77 195.58L99.3 194.57L98.87 193.53L98.48 192.49L98.15 191.43L97.84 190.36L97.59 189.29L97.37 188.21L97.2 187.12L97.07 186.02L96.98 184.93L96.93 183.83L96.93 182.73L96.96 181.63L97.04 180.53L97.17 179.44L97.32 178.35L97.53 177.26L97.77 176.19L98.06 175.12L98.39 174.06L98.77 173.02L99.18 171.98L99.63 170.96L100.13 169.96L100.67 168.96L101.25 167.99L101.87 167.04L102.54 166.11L103.24 165.19L103.99 164.3L104.77 163.44L105.6 162.6L106 162.22L106.4 161.86L106.81 161.49L107.23 161.14L107.65 160.8L108.07 160.46L108.5 160.13L108.95 159.81L109.39 159.5L109.84 159.21L110.29 158.91L110.75 158.63L111.21 158.35L111.69 158.09L112.16 157.83L112.64 157.59L113.12 157.34L113.61 157.11L114.1 156.9L114.59 156.68L115.09 156.49L115.59 156.29L116.1 156.1L116.61 155.94L117.12 155.77L117.63 155.61L118.15 155.48L118.68 155.34L119.21 155.21L119.74 155.1L120.27 154.99L120.8 154.9L121.34 154.82L121.87 154.74L122.41 154.67L122.95 154.62L123.5 154.57L124.04 154.54L124.59 154.51L125.12 154.5L524.95 154.5L526.12 154.55L527.27 154.64L528.42 154.78Z" id="a1y1zXfjw"></path></defs><g><g><use xlink:href="#a1y1zXfjw" opacity="1" fill="#adafb1" fill-opacity="1"></use></g></g></svg>