<?xml version="1.0" encoding="UTF-8" standalone="no"?>
<!DOCTYPE svg PUBLIC "-//W3C//DTD SVG 1.1//EN" "http://www.w3.org/Graphics/SVG/1.1/DTD/svg11.dtd">
<svg version="1.1" xmlns="http://www.w3.org/2000/svg" xmlns:xlink="http://www.w3.org/1999/xlink" preserveAspectRatio="xMidYMid meet" viewBox="203.53667631716235 144.54236159628996 153.70525978854772 244.65482150230153" width="7" height="12"><defs><path d="M251.33 152.16C242.5 143.34 228.04 143.34 219.21 152.16C218.41 152.97 211.97 159.4 211.17 160.21C202.34 169.02 202.34 183.49 211.17 192.32C216.07 197.22 240.58 221.74 284.7 265.87C240.57 310 216.06 334.51 211.16 339.41C202.33 348.24 202.33 362.71 211.16 371.53C211.96 372.33 218.4 378.76 219.2 379.57C228.03 388.41 242.49 388.41 251.32 379.57C260.96 369.93 338.06 292.82 347.7 283.18C352.44 278.45 354.55 272.09 354.2 265.86C354.56 259.64 352.45 253.28 347.71 248.54C328.43 229.26 260.97 161.8 251.33 152.16Z" id="d14Bqh0gNv"></path></defs><g><g><use xlink:href="#d14Bqh0gNv" opacity="1" fill="#adafb1" fill-opacity="1"></use></g></g></svg>