<?xml version="1.0" encoding="UTF-8" standalone="no"?>
<!DOCTYPE svg PUBLIC "-//W3C//DTD SVG 1.1//EN" "http://www.w3.org/Graphics/SVG/1.1/DTD/svg11.dtd">
<svg version="1.1" xmlns="http://www.w3.org/2000/svg" xmlns:xlink="http://www.w3.org/1999/xlink" preserveAspectRatio="xMidYMid meet" viewBox="67.30985915492948 65.19718309859155 484.18749999999994 484.18749999999994" width="480.19" height="480.19"><defs><path d="M372.03 306.29C469.98 208.34 524.4 153.92 535.28 143.04C552.9 125.42 552.9 97.04 535.28 79.42C517.65 61.79 489.28 61.79 471.65 79.42C460.77 90.3 406.35 144.72 308.4 242.67C210.45 144.72 156.04 90.3 145.15 79.42C127.53 61.79 99.15 61.79 81.53 79.42C63.9 97.04 63.9 125.42 81.53 143.04C92.41 153.92 146.83 208.34 244.78 306.29C146.83 404.24 92.41 458.66 81.53 469.54C63.9 487.17 63.9 515.54 81.53 533.17C99.15 550.79 127.53 550.79 145.15 533.17C156.04 522.28 210.45 467.87 308.4 369.92C406.35 467.87 460.77 522.28 471.65 533.17C489.28 550.79 517.65 550.79 535.28 533.17C552.78 515.54 552.78 487.04 535.28 469.54C513.51 447.77 459.1 393.36 372.03 306.29Z" id="hjInEG8gl"></path></defs><g><g><use xlink:href="#hjInEG8gl" opacity="1" fill="#adafb1" fill-opacity="1"></use></g></g></svg>