<svg id="Livello_1" data-name="Livello 1" xmlns="http://www.w3.org/2000/svg" viewBox="0 0 30 30"><defs><style>.cls-1{fill:#c0392b;}</style></defs><title>error</title><path class="cls-1" d="M64,49A15,15,0,1,0,79,64,15,15,0,0,0,64,49Zm0,28.59A13.59,13.59,0,1,1,77.59,64,13.58,13.58,0,0,1,64,77.59Z" transform="translate(-49 -49)"/><path class="cls-1" d="M70.59,57.39a.69.69,0,0,0-1,0L64,63l-5.59-5.62a.71.71,0,0,0-1,1L63,64l-5.6,5.63a.7.7,0,0,0,0,1,.72.72,0,0,0,1,0L64,65l5.6,5.62a.7.7,0,0,0,1-1L65,64l5.6-5.62A.71.71,0,0,0,70.59,57.39Z" transform="translate(-49 -49)"/></svg>