<svg id="Layer_1" data-name="Layer 1" xmlns="http://www.w3.org/2000/svg" viewBox="0 0 125.37 256.1"><defs><style>.cls-1{fill:#fff;}</style></defs><title>fb-icon</title><path class="cls-1" d="M303.65,427.65c0,18.16-.1,36.32.07,54.48,0,3.72-.64,5.19-4.84,5.08-12.32-.31-24.65-.27-37,0-3.8.08-4.71-1-4.7-4.72.14-36.32,0-72.64.23-109,0-5.41-1.59-6.66-6.62-6.36-7,.43-14,0-21,.17-3.29.1-4.71-.58-4.63-4.3.23-11.82.2-23.65,0-35.48-.06-3.38,1.12-4.23,4.33-4.15,8,.21,16-.11,24,.17,3.26.11,3.83-1,3.82-3.94,0-12.66-.61-25.38.48-37.95,2.38-27.46,20-45.4,47.17-49.44,14-2.08,27.92-.78,41.88.16,2.82.19,3.54,1.54,3.43,4.21-.48,11.32-.88,22.64-1.06,34-.05,3.28-1.72,3.25-4.11,3.23-9.49-.05-19-.93-28.46.16-8.39,1-12.37,4.75-12.71,13.21-.44,11.15-.16,22.32-.38,33.48-.06,3.21,1.79,2.84,3.86,2.83,12.82,0,25.65.1,38.48-.09,3.59-.06,4.92.54,4.59,4.63-.89,10.78-1.21,21.61-1.71,32.43-.31,6.8-.27,6.81-6.85,6.81-11.33,0-22.66.14-34-.09-3.57-.07-4.44,1.06-4.41,4.49C303.73,390.33,303.65,409,303.65,427.65Z" transform="translate(-225.2 -231.12)"/></svg>