<svg xmlns="http://www.w3.org/2000/svg" viewBox="5454.493 5426.85 22.827 20.35"><defs><style>.a{fill:#3498db;}</style></defs><g transform="translate(5477.32 5417) rotate(90)"><g transform="translate(9.85)"><path class="a" d="M176.047,11.126V.642a.642.642,0,1,0-1.283,0V11.126a3.258,3.258,0,0,0,0,6.388v4.667a.642.642,0,1,0,1.283,0V17.514a3.258,3.258,0,0,0,0-6.388Zm-.642,5.166a1.972,1.972,0,1,1,1.972-1.972A1.974,1.974,0,0,1,175.406,16.292Z" transform="translate(-165.207 0)"/><path class="a" d="M10.747,5.746V.642a.642.642,0,0,0-1.283,0v5.1a3.258,3.258,0,0,0,0,6.388V22.181a.642.642,0,1,0,1.283,0V12.129a3.255,3.255,0,0,0,0-6.383Zm-.642,5.166A1.972,1.972,0,1,1,12.078,8.94,1.974,1.974,0,0,1,10.106,10.912Z" transform="translate(-6.85 0)"/><path class="a" d="M340.347,5.746V.642a.642.642,0,0,0-1.283,0v5.1a3.258,3.258,0,0,0,0,6.388V22.186a.642.642,0,0,0,1.283,0V12.129a3.255,3.255,0,0,0,0-6.383Zm-.642,5.166a1.972,1.972,0,1,1,1.972-1.972A1.974,1.974,0,0,1,339.706,10.912Z" transform="translate(-322.611 0)"/></g></g></svg>