<svg xmlns="http://www.w3.org/2000/svg" viewBox="-11896 537 16.186 16.62"><defs><style>.a{fill:#fff;}</style></defs><path class="a" d="M8.418,9.866V7.6h7.647a7.671,7.671,0,0,1,.121,1.375,7.4,7.4,0,0,1-1.978,5.307,7.589,7.589,0,0,1-5.789,2.34A8.437,8.437,0,0,1,0,8.3,8.417,8.417,0,0,1,8.418,0a7.879,7.879,0,0,1,5.693,2.292L12.519,3.884a5.759,5.759,0,0,0-4.1-1.616A5.956,5.956,0,0,0,2.46,8.3a5.956,5.956,0,0,0,5.958,6.03,5.551,5.551,0,0,0,4.2-1.664,4.719,4.719,0,0,0,1.23-2.822Z" transform="translate(-11896 537)"/></svg>