<?xml version="1.0" encoding="utf-8"?>
<!-- Generator: Adobe Illustrator 22.0.1, SVG Export Plug-In . SVG Version: 6.00 Build 0)  -->
<svg version="1.1" id="Layer_1" xmlns="http://www.w3.org/2000/svg" xmlns:xlink="http://www.w3.org/1999/xlink" x="0px" y="0px"
	 viewBox="0 0 55.1 55" style="enable-background:new 0 0 55.1 55;" xml:space="preserve">
<style type="text/css">
	.st0{fill:#c3c7d0;}
</style>
<g transform="translate(-1525 656)">
	<path class="st0" d="M1552.5-656c-15.2,0-27.5,12.3-27.5,27.5c0,15.2,12.3,27.5,27.5,27.5c15.2,0,27.5-12.3,27.5-27.5
		C1580-643.7,1567.7-656,1552.5-656z M1552.5-606c-12.4,0-22.5-10.1-22.5-22.5c0-12.4,10.1-22.5,22.5-22.5s22.5,10.1,22.5,22.5l0,0
		C1575-616.1,1565-606,1552.5-606z"/>
	<path class="st0" d="M1552.5-644.3c-1.8,0-3.3,1.5-3.3,3.3c0,1.8,1.5,3.3,3.3,3.3c1.8,0,3.3-1.5,3.3-3.3
		C1555.9-642.8,1554.4-644.3,1552.5-644.3z"/>
	<path class="st0" d="M1552.5-632.7c-1.4,0-2.5,1.1-2.5,2.5l0,0v15c0,1.4,1.1,2.5,2.5,2.5c1.4,0,2.5-1.1,2.5-2.5v-15
		C1555-631.5,1553.9-632.7,1552.5-632.7L1552.5-632.7z"/>
</g>
</svg>
