<?xml version="1.0" encoding="utf-8"?>
<!-- Generator: Adobe Illustrator 22.0.1, SVG Export Plug-In . SVG Version: 6.00 Build 0)  -->
<svg version="1.1" id="Layer_1" xmlns="http://www.w3.org/2000/svg" xmlns:xlink="http://www.w3.org/1999/xlink" x="0px" y="0px"
	 viewBox="0 0 28.1 28" style="enable-background:new 0 0 28.1 28;" xml:space="preserve">
<style type="text/css">
	.st0{fill:#c3c7d0;}
</style>
<g transform="translate(-1525 656)">
	<path class="st0" d="M1539-656c-7.7,0-14,6.3-14,14c0,7.7,6.3,14,14,14c7.7,0,14-6.3,14-14C1553-649.7,1546.8-656,1539-656z
		 M1539-630.5c-6.3,0-11.5-5.1-11.5-11.5c0-6.3,5.1-11.5,11.5-11.5s11.5,5.1,11.5,11.5v0C1550.5-635.7,1545.4-630.5,1539-630.5z"/>
	<path class="st0" d="M1539-650.1c-0.9,0-1.7,0.8-1.7,1.7s0.8,1.7,1.7,1.7c0.9,0,1.7-0.8,1.7-1.7
		C1540.7-649.3,1540-650.1,1539-650.1z"/>
	<path class="st0" d="M1539-644.1c-0.7,0-1.3,0.6-1.3,1.3l0,0v7.6c0,0.7,0.6,1.3,1.3,1.3c0.7,0,1.3-0.6,1.3-1.3v-7.6
		C1540.3-643.5,1539.7-644.1,1539-644.1L1539-644.1z"/>
</g>
</svg>
