<?xml version="1.0" encoding="utf-8"?>
<!-- Generator: Adobe Illustrator 22.0.1, SVG Export Plug-In . SVG Version: 6.00 Build 0)  -->
<svg version="1.1" id="Layer_1" xmlns="http://www.w3.org/2000/svg" xmlns:xlink="http://www.w3.org/1999/xlink" x="0px" y="0px"
	 viewBox="0 0 82.6 82.4" style="enable-background:new 0 0 82.6 82.4;" xml:space="preserve">
<style type="text/css">
	.st0{fill:#c3c7d0;}
</style>
<g transform="translate(-1525 656)">
	<path class="st0" d="M1566.3-656c-22.7,0-41.2,18.4-41.2,41.2c0,22.7,18.4,41.2,41.2,41.2c22.7,0,41.2-18.4,41.2-41.2
		C1607.5-637.6,1589-656,1566.3-656z M1566.3-581.1c-18.6,0-33.7-15.1-33.7-33.7s15.1-33.7,33.7-33.7c18.6,0,33.7,15.1,33.7,33.7
		l0,0C1600-596.2,1584.9-581.1,1566.3-581.1z"/>
	<path class="st0" d="M1566.3-638.5c-2.8,0-5,2.2-5,5c0,2.8,2.2,5,5,5c2.8,0,5-2.2,5-5C1571.3-636.3,1569.1-638.5,1566.3-638.5z"/>
	<path class="st0" d="M1566.3-621.1c-2.1,0-3.7,1.7-3.7,3.7l0,0v22.5c0,2.1,1.7,3.7,3.7,3.7s3.7-1.7,3.7-3.7v-22.5
		C1570-619.4,1568.4-621.1,1566.3-621.1L1566.3-621.1z"/>
</g>
</svg>
