<?xml version="1.0" encoding="UTF-8" standalone="no"?>
<!DOCTYPE svg PUBLIC "-//W3C//DTD SVG 1.1//EN" "http://www.w3.org/Graphics/SVG/1.1/DTD/svg11.dtd">
<svg version="1.1" xmlns="http://www.w3.org/2000/svg" xmlns:xlink="http://www.w3.org/1999/xlink" preserveAspectRatio="xMidYMid meet" viewBox="197.19864814814827 78.3451784976985 153.70525978854772 244.65482150230156" width="149.71" height="240.65"><defs><path d="M244.99 85.97C236.17 77.14 221.7 77.14 212.87 85.97C212.07 86.77 205.63 93.2 204.83 94.01C196 102.83 196 117.29 204.83 126.12C209.73 131.02 234.24 155.54 278.36 199.67C234.24 243.8 209.72 268.31 204.82 273.22C195.99 282.04 195.99 296.51 204.82 305.33C205.62 306.13 212.06 312.57 212.86 313.37C221.69 322.21 236.16 322.21 244.98 313.37C254.62 303.73 331.72 226.63 341.36 216.99C346.1 212.25 348.22 205.9 347.86 199.66C348.23 193.44 346.11 187.09 341.37 182.34C322.09 163.07 254.63 95.6 244.99 85.97Z" id="i1psX5cZV"></path></defs><g><g><use xlink:href="#i1psX5cZV" opacity="1" fill="#3498db" fill-opacity="1"></use></g></g></svg>