<?xml version="1.0" encoding="UTF-8" standalone="no"?>
<!DOCTYPE svg PUBLIC "-//W3C//DTD SVG 1.1//EN" "http://www.w3.org/Graphics/SVG/1.1/DTD/svg11.dtd">
<svg version="1.1" xmlns="http://www.w3.org/2000/svg" xmlns:xlink="http://www.w3.org/1999/xlink" preserveAspectRatio="xMidYMid meet" viewBox="-115.60724171044427 5.027678924476618 687.7224199288248 687.7224199288247" width="637.72" height="637.72"><defs><path d="M277.36 30.09L277.98 30.18L278.57 30.29L279.15 30.43L279.71 30.61L280.25 30.81L280.78 31.04L281.29 31.31L281.78 31.59L282.27 31.91L282.73 32.25L283.19 32.62L283.63 33.02L284.05 33.43L284.47 33.87L284.87 34.34L285.26 34.83L285.64 35.34L286.02 35.87L286.38 36.42L286.73 36.99L287.07 37.58L287.41 38.19L287.73 38.82L288.05 39.46L288.36 40.12L288.67 40.8L288.97 41.49L289.27 42.2L289.56 42.92L289.84 43.66L290.12 44.41L290.4 45.17L290.68 45.94L290.95 46.73L291.22 47.52L291.49 48.32L291.76 49.14L292.03 49.96L305.81 101.68L310.14 103.02L319.71 106.42L329.1 110.17L338.3 114.28L347.31 118.73L348.06 119.13L394.54 92.23L395.31 91.84L396.07 91.45L396.83 91.07L397.58 90.7L398.33 90.34L399.07 89.99L399.81 89.65L400.53 89.32L401.26 89L401.97 88.7L402.68 88.4L403.38 88.13L404.08 87.86L404.77 87.62L405.45 87.39L406.12 87.17L406.79 86.98L407.45 86.81L408.11 86.65L408.75 86.52L409.39 86.4L410.02 86.31L410.64 86.24L411.25 86.2L411.86 86.18L412.46 86.19L413.05 86.22L413.63 86.28L414.2 86.37L414.76 86.49L415.32 86.63L415.86 86.81L416.4 87.02L416.93 87.26L417.45 87.53L417.96 87.83L418.46 88.17L418.95 88.55L419.43 88.96L419.9 89.41L487.54 157.05L487.99 157.52L488.41 158.01L488.79 158.5L489.14 159.01L489.45 159.53L489.74 160.06L489.99 160.61L490.21 161.16L490.41 161.72L490.57 162.29L490.7 162.87L490.81 163.46L490.89 164.06L490.94 164.67L490.96 165.28L490.96 165.91L490.93 166.54L490.88 167.18L490.81 167.82L490.71 168.47L490.59 169.13L490.44 169.79L490.28 170.46L490.09 171.14L489.88 171.82L489.66 172.5L489.41 173.19L489.14 173.89L488.86 174.58L488.56 175.28L488.24 175.99L487.91 176.7L487.56 177.4L487.2 178.12L486.82 178.83L486.42 179.54L486.02 180.26L485.6 180.98L485.17 181.7L484.72 182.42L457.86 228.82L458.41 229.83L462.86 238.84L466.97 248.05L470.73 257.43L474.12 267L475.46 271.33L527.19 285.12L528.01 285.31L528.82 285.51L529.62 285.73L530.42 285.95L531.2 286.17L531.97 286.41L532.73 286.66L533.48 286.91L534.22 287.17L534.94 287.45L535.65 287.73L536.34 288.02L537.02 288.33L537.68 288.64L538.33 288.96L538.95 289.3L539.56 289.64L540.15 290L540.72 290.37L541.28 290.75L541.81 291.14L542.32 291.54L542.8 291.95L543.27 292.38L543.71 292.82L544.13 293.27L544.52 293.74L544.89 294.22L545.23 294.71L545.55 295.22L545.84 295.73L546.1 296.27L546.33 296.81L546.54 297.38L546.71 297.95L546.85 298.54L546.97 299.15L547.05 299.77L547.1 300.41L547.12 301.06L547.12 396.72L547.1 397.37L547.05 398L546.97 398.61L546.85 399.21L546.71 399.78L546.54 400.34L546.33 400.89L546.1 401.41L545.84 401.92L545.55 402.42L545.23 402.9L544.89 403.37L544.52 403.82L544.13 404.26L543.71 404.69L543.27 405.1L542.8 405.51L542.32 405.9L541.81 406.28L541.28 406.65L540.72 407.01L540.15 407.36L539.56 407.71L538.95 408.04L538.33 408.37L537.68 408.69L537.02 409L536.34 409.31L535.65 409.61L534.94 409.9L534.22 410.19L533.48 410.48L532.73 410.76L531.97 411.04L531.2 411.31L530.42 411.58L529.62 411.86L528.82 412.12L528.01 412.39L527.19 412.66L475.46 426.45L474.12 430.78L470.73 440.34L466.97 449.73L462.86 458.94L458.41 467.95L457.91 468.86L484.72 515.17L485.17 515.89L485.6 516.61L486.02 517.33L486.42 518.04L486.82 518.76L487.2 519.47L487.56 520.18L487.91 520.89L488.24 521.6L488.56 522.3L488.86 523L489.14 523.7L489.41 524.39L489.66 525.08L489.88 525.77L490.09 526.45L490.28 527.12L490.44 527.79L490.59 528.46L490.71 529.11L490.81 529.77L490.88 530.41L490.93 531.05L490.96 531.68L490.96 532.3L490.94 532.92L490.89 533.53L490.81 534.13L490.7 534.72L490.57 535.3L490.41 535.87L490.21 536.43L489.99 536.98L489.74 537.52L489.45 538.05L489.14 538.57L488.79 539.08L488.41 539.58L487.99 540.06L487.54 540.54L419.9 608.18L419.43 608.63L418.95 609.04L418.46 609.41L417.96 609.75L417.45 610.06L416.93 610.33L416.4 610.57L415.86 610.78L415.32 610.96L414.76 611.1L414.2 611.22L413.63 611.31L413.05 611.37L412.46 611.4L411.86 611.41L411.25 611.39L410.64 611.34L410.02 611.28L409.39 611.18L408.75 611.07L408.11 610.94L407.45 610.78L406.79 610.61L406.12 610.41L405.45 610.2L404.77 609.97L404.08 609.72L403.38 609.46L402.68 609.18L401.97 608.89L401.26 608.59L400.53 608.27L399.81 607.94L399.07 607.6L398.33 607.24L397.58 606.88L396.83 606.51L396.07 606.14L395.31 605.75L394.54 605.36L348.22 578.55L347.31 579.05L338.3 583.5L329.1 587.6L319.71 591.36L310.14 594.76L305.81 596.1L292.03 647.82L291.76 648.64L291.49 649.45L291.22 650.26L290.95 651.05L290.68 651.84L290.4 652.61L290.12 653.37L289.84 654.12L289.56 654.85L289.27 655.58L288.97 656.28L288.67 656.98L288.36 657.65L288.05 658.32L287.73 658.96L287.41 659.59L287.07 660.2L286.73 660.79L286.38 661.36L286.02 661.91L285.64 662.44L285.26 662.95L284.87 663.44L284.47 663.9L284.05 664.34L283.63 664.76L283.19 665.16L282.73 665.52L282.27 665.87L281.78 666.18L281.29 666.47L280.78 666.73L280.25 666.97L279.71 667.17L279.15 667.34L278.57 667.49L277.98 667.6L277.36 667.68L276.73 667.73L276.08 667.75L180.42 667.75L179.77 667.73L179.14 667.68L178.52 667.6L177.91 667.49L177.32 667.34L176.74 667.17L176.18 666.97L175.63 666.73L175.1 666.47L174.58 666.18L174.07 665.87L173.58 665.52L173.1 665.16L172.64 664.76L172.19 664.34L171.75 663.9L171.32 663.44L170.9 662.95L170.5 662.44L170.11 661.91L169.73 661.36L169.36 660.79L169.01 660.2L168.66 659.59L168.33 658.96L168 658.32L167.69 657.65L167.39 656.98L167.09 656.28L166.81 655.58L166.54 654.85L166.27 654.12L166.02 653.37L165.77 652.61L165.54 651.84L165.31 651.05L165.09 650.26L164.88 649.45L164.68 648.64L164.48 647.82L150.69 596.1L146.37 594.76L136.8 591.36L127.41 587.6L118.21 583.5L109.19 579.05L108.11 578.46L61.97 605.17L61.25 605.61L60.53 606.04L59.82 606.46L59.1 606.87L58.39 607.26L57.67 607.64L56.96 608L56.25 608.35L55.54 608.69L54.84 609.01L54.14 609.31L53.44 609.59L52.75 609.85L52.06 610.1L51.37 610.33L50.69 610.53L50.02 610.72L49.35 610.89L48.69 611.03L48.03 611.15L47.38 611.25L46.73 611.33L46.09 611.38L45.46 611.4L44.84 611.41L44.22 611.38L43.62 611.33L43.02 611.25L42.43 611.15L41.85 611.01L41.27 610.85L40.71 610.66L40.16 610.44L39.62 610.18L39.09 609.9L38.57 609.58L38.06 609.23L37.56 608.85L37.08 608.44L36.61 607.99L-31.04 540.35L-31.48 539.88L-31.89 539.39L-32.27 538.9L-32.61 538.4L-32.92 537.89L-33.19 537.37L-33.43 536.85L-33.64 536.31L-33.81 535.76L-33.96 535.21L-34.08 534.64L-34.16 534.07L-34.22 533.49L-34.26 532.9L-34.26 532.3L-34.24 531.7L-34.2 531.08L-34.13 530.46L-34.04 529.83L-33.93 529.19L-33.79 528.55L-33.64 527.9L-33.46 527.24L-33.27 526.57L-33.06 525.89L-32.83 525.21L-32.58 524.52L-32.32 523.83L-32.04 523.13L-31.75 522.42L-31.44 521.7L-31.12 520.98L-30.79 520.25L-30.45 519.52L-30.1 518.77L-29.74 518.03L-29.37 517.27L-28.99 516.52L-28.61 515.75L-28.22 514.98L-1.45 468.77L-1.9 467.95L-6.35 458.94L-10.46 449.73L-14.22 440.34L-17.61 430.78L-18.95 426.45L-70.68 412.66L-71.5 412.39L-72.31 412.12L-73.12 411.86L-73.91 411.58L-74.69 411.31L-75.47 411.04L-76.23 410.76L-76.97 410.48L-77.71 410.19L-78.43 409.9L-79.14 409.61L-79.83 409.31L-80.51 409L-81.17 408.69L-81.82 408.37L-82.44 408.04L-83.05 407.71L-83.64 407.36L-84.22 407.01L-84.77 406.65L-85.3 406.28L-85.81 405.9L-86.3 405.51L-86.76 405.1L-87.2 404.69L-87.62 404.26L-88.01 403.82L-88.38 403.37L-88.72 402.9L-89.04 402.42L-89.33 401.92L-89.59 401.41L-89.82 400.89L-90.03 400.34L-90.2 399.78L-90.35 399.21L-90.46 398.61L-90.54 398L-90.59 397.37L-90.61 396.72L-90.61 301.06L-90.59 300.41L-90.54 299.77L-90.46 299.15L-90.35 298.54L-90.2 297.95L-90.03 297.38L-89.82 296.81L-89.59 296.27L-89.33 295.73L-89.04 295.22L-88.72 294.71L-88.38 294.22L-88.01 293.74L-87.62 293.27L-87.2 292.82L-86.76 292.38L-86.3 291.95L-85.81 291.54L-85.3 291.14L-84.77 290.75L-84.22 290.37L-83.64 290L-83.05 289.64L-82.44 289.3L-81.82 288.96L-81.17 288.64L-80.51 288.33L-79.83 288.02L-79.14 287.73L-78.43 287.45L-77.71 287.17L-76.97 286.91L-76.23 286.66L-75.47 286.41L-74.69 286.17L-73.91 285.95L-73.12 285.73L-72.31 285.51L-71.5 285.31L-70.68 285.12L-18.95 271.33L-17.61 267L-14.22 257.43L-10.46 248.05L-6.35 238.84L-1.9 229.83L-1.4 228.92L-28.22 182.61L-28.61 181.84L-28.99 181.07L-29.37 180.31L-29.74 179.56L-30.1 178.81L-30.45 178.07L-30.79 177.34L-31.12 176.61L-31.44 175.89L-31.75 175.17L-32.04 174.46L-32.32 173.76L-32.58 173.06L-32.83 172.37L-33.06 171.69L-33.27 171.02L-33.46 170.35L-33.64 169.69L-33.79 169.04L-33.93 168.39L-34.04 167.76L-34.13 167.13L-34.2 166.5L-34.24 165.89L-34.26 165.28L-34.26 164.69L-34.22 164.1L-34.16 163.52L-34.08 162.94L-33.96 162.38L-33.81 161.82L-33.64 161.28L-33.43 160.74L-33.19 160.21L-32.92 159.69L-32.61 159.18L-32.27 158.68L-31.89 158.19L-31.48 157.71L-31.04 157.24L36.61 89.6L37.08 89.15L37.56 88.74L38.06 88.35L38.57 88.01L39.09 87.69L39.62 87.41L40.16 87.15L40.71 86.93L41.27 86.74L41.85 86.58L42.43 86.44L43.02 86.34L43.62 86.26L44.22 86.21L44.84 86.18L45.46 86.18L46.09 86.21L46.73 86.26L47.38 86.34L48.03 86.44L48.69 86.56L49.35 86.7L50.02 86.87L50.69 87.05L51.37 87.26L52.06 87.49L52.75 87.73L53.44 88L54.14 88.28L54.84 88.58L55.54 88.9L56.25 89.23L56.96 89.58L57.67 89.95L58.39 90.33L59.1 90.72L59.82 91.13L60.53 91.54L61.25 91.98L61.97 92.42L108.29 119.23L109.19 118.73L118.21 114.28L127.41 110.17L136.8 106.42L146.37 103.02L150.69 101.68L164.48 49.96L164.68 49.14L164.88 48.32L165.09 47.52L165.31 46.73L165.54 45.94L165.77 45.17L166.02 44.41L166.27 43.66L166.54 42.92L166.81 42.2L167.09 41.49L167.39 40.8L167.69 40.12L168 39.46L168.33 38.82L168.66 38.19L169.01 37.58L169.36 36.99L169.73 36.42L170.11 35.87L170.5 35.34L170.9 34.83L171.32 34.34L171.75 33.87L172.19 33.43L172.64 33.02L173.1 32.62L173.58 32.25L174.07 31.91L174.58 31.59L175.1 31.31L175.63 31.04L176.18 30.81L176.74 30.61L177.32 30.43L177.91 30.29L178.52 30.18L179.14 30.09L179.77 30.04L180.42 30.03L276.08 30.03L276.73 30.04L277.36 30.09ZM216.81 209.85L211.19 210.42L205.63 211.21L200.14 212.22L194.73 213.44L189.4 214.87L184.16 216.5L179.01 218.33L173.95 220.35L169 222.56L164.14 224.96L159.4 227.53L154.77 230.29L150.26 233.21L145.87 236.3L141.6 239.56L137.47 242.97L133.47 246.53L129.61 250.25L125.9 254.1L122.33 258.1L118.92 262.24L115.67 266.5L112.58 270.89L109.65 275.41L106.9 280.04L104.32 284.78L101.93 289.63L99.71 294.59L97.69 299.64L95.86 304.8L94.23 310.04L92.81 315.36L91.59 320.77L90.58 326.26L89.79 331.82L89.21 337.45L88.87 343.14L88.75 348.89L88.87 354.64L89.21 360.33L89.79 365.96L90.58 371.52L91.59 377L92.81 382.41L94.23 387.74L95.86 392.98L97.69 398.13L99.71 403.19L101.93 408.15L104.32 413L106.9 417.74L109.65 422.37L112.58 426.89L115.67 431.28L118.92 435.54L122.33 439.68L125.9 443.67L129.61 447.53L133.47 451.25L137.47 454.81L141.6 458.22L145.87 461.47L150.26 464.57L154.77 467.49L159.4 470.24L164.14 472.82L169 475.22L173.95 477.43L179.01 479.45L184.16 481.28L189.4 482.91L194.73 484.34L200.14 485.56L205.63 486.56L211.19 487.36L216.81 487.93L222.5 488.27L228.25 488.39L234 488.27L239.7 487.93L245.32 487.36L250.88 486.56L256.37 485.56L261.78 484.34L267.11 482.91L272.35 481.28L277.5 479.45L282.55 477.43L287.51 475.22L292.36 472.82L297.11 470.24L301.74 467.49L306.25 464.57L310.64 461.47L314.91 458.22L319.04 454.81L323.04 451.25L326.9 447.53L330.61 443.67L334.18 439.68L337.59 435.54L340.84 431.28L343.93 426.89L346.86 422.37L349.61 417.74L352.18 413L354.58 408.15L356.79 403.19L358.82 398.13L360.64 392.98L362.27 387.74L363.7 382.41L364.92 377L365.93 371.52L366.72 365.96L367.29 360.33L367.64 354.64L367.76 348.89L367.64 343.14L367.29 337.45L366.72 331.82L365.93 326.26L364.92 320.77L363.7 315.36L362.27 310.04L360.64 304.8L358.82 299.64L356.79 294.59L354.58 289.63L352.18 284.78L349.61 280.04L346.86 275.41L343.93 270.89L340.84 266.5L337.59 262.24L334.18 258.1L330.61 254.1L326.9 250.25L323.04 246.53L319.04 242.97L314.91 239.56L310.64 236.3L306.25 233.21L301.74 230.29L297.11 227.53L292.36 224.96L287.51 222.56L282.55 220.35L277.5 218.33L272.35 216.5L267.11 214.87L261.78 213.44L256.37 212.22L250.88 211.21L245.32 210.42L239.7 209.85L234 209.5L228.25 209.39L222.5 209.5L216.81 209.85Z" id="eeL1Se2wa"></path></defs><g><g><g><use xlink:href="#eeL1Se2wa" opacity="1" fill-opacity="0" stroke="#ffffff" stroke-width="50" stroke-opacity="1"></use></g></g></g></svg>