<svg id="Layer_1" data-name="Layer 1" xmlns="http://www.w3.org/2000/svg" viewBox="0 0 30 41.25"><defs><style>.cls-1{fill:#fff;}</style></defs><title>sort</title><path class="cls-1" d="M911,901.63a1.8,1.8,0,0,1-.56,1.31l-13.12,13.13a1.84,1.84,0,0,1-2.64,0l-13.12-13.13a1.88,1.88,0,0,1,1.32-3.19h26.25a1.91,1.91,0,0,1,1.87,1.88Zm0-11.25a1.91,1.91,0,0,1-1.87,1.87H882.88a1.86,1.86,0,0,1-1.32-3.19l13.12-13.13a1.86,1.86,0,0,1,2.64,0l13.12,13.13A1.81,1.81,0,0,1,911,890.38Z" transform="translate(-881 -875.38)"/></svg>