<svg id="Livello_1" data-name="Livello 1" xmlns="http://www.w3.org/2000/svg" viewBox="0 0 30 30"><defs><style>.cls-1{fill:#27ae60;}</style></defs><title>tick</title><path class="cls-1" d="M64,49A15,15,0,1,0,79,64,15,15,0,0,0,64,49Zm0,28.59A13.59,13.59,0,1,1,77.59,64,13.58,13.58,0,0,1,64,77.59Z" transform="translate(-49 -49)"/><path class="cls-1" d="M69.6,58.93l-8.79,8.64L58.41,65a.69.69,0,0,0-1,0,.7.7,0,0,0,0,1l2.9,3a.66.66,0,0,0,.49.22h0a.7.7,0,0,0,.5-.2l9.29-9.14a.7.7,0,1,0-1-1Z" transform="translate(-49 -49)"/></svg>