<svg xmlns="http://www.w3.org/2000/svg" viewBox="11247 1489 23.112 22.65"><defs><style>.a{fill:#e2ebf7;}.b{fill:#acc2e0;}.c,.d{fill:#6d81b9;}.c{opacity:0.3;}.d{opacity:0.5;}.e{fill:#6ac78e;}</style></defs><g transform="translate(11247 1487)"><g transform="translate(0 2)"><rect class="a" width="23.113" height="16.179" transform="translate(0 6.472)"/><rect class="b" width="23.113" height="6.472"/><circle class="c" cx="1.387" cy="1.387" r="1.387" transform="translate(1.849 1.849)"/><circle class="d" cx="1.387" cy="1.387" r="1.387" transform="translate(6.009 1.849)"/><circle class="e" cx="1.387" cy="1.387" r="1.387" transform="translate(10.17 1.849)"/></g><g transform="translate(2.983 10.754)"><path class="b" d="M11.135,21.885H27c.35,0,.635-.2.635-.443S27.352,21,27,21H11.135c-.35,0-.635.2-.635.443S10.784,21.885,11.135,21.885Z" transform="translate(-10.5 -17.459)"/><path class="b" d="M11.135,13.885h6.347c.35,0,.635-.2.635-.443S17.832,13,17.482,13H11.135c-.35,0-.635.2-.635.443S10.784,13.885,11.135,13.885Z" transform="translate(-10.5 -13)"/><path class="b" d="M27,29H11.135c-.35,0-.635.2-.635.443s.284.443.635.443H27c.35,0,.635-.2.635-.443S27.352,29,27,29Z" transform="translate(-10.5 -21.919)"/><path class="b" d="M27,37H11.135c-.35,0-.635.2-.635.443s.284.443.635.443H27c.35,0,.635-.2.635-.443S27.352,37,27,37Z" transform="translate(-10.5 -26.378)"/></g></g></svg>