<svg id="Layer_1" data-name="Layer 1" xmlns="http://www.w3.org/2000/svg" xmlns:xlink="http://www.w3.org/1999/xlink" viewBox="0 0 970 431.53"><defs><style>.cls-1{fill:none;}.cls-2{clip-path:url(#clip-path);}.cls-12,.cls-3{opacity:0.4;}.cls-4{fill:#00e5d0;}.cls-5{clip-path:url(#clip-path-2);}.cls-6{fill:#e1e6ed;}.cls-7{clip-path:url(#clip-path-3);}.cls-10,.cls-12,.cls-8{isolation:isolate;}.cls-9{fill:#b0bac8;}.cls-10{opacity:0.8;}.cls-11{clip-path:url(#clip-path-4);}.cls-13{opacity:0.3;}.cls-14{fill:#6b7c93;}.cls-15{fill:#3498db;}.cls-16{fill:#e8e8e8;}.cls-17{fill:#acc2e0;}</style><clipPath id="clip-path"><rect class="cls-1" x="108.62" y="355.92" width="801" height="2.5"/></clipPath><clipPath id="clip-path-2"><rect class="cls-1" x="108.31" y="224.59" width="801.78" height="2.5"/></clipPath><clipPath id="clip-path-3"><rect class="cls-1" x="107.34" y="108.5" width="802.66" height="2.5"/></clipPath><clipPath id="clip-path-4"><rect class="cls-1" x="108.95" y="53.5" width="801.05" height="302.5"/></clipPath></defs><title>Morningscore chart</title><g id="Group_7204" data-name="Group 7204"><g class="cls-2"><g id="Repeat_Grid_13" data-name="Repeat Grid 13" class="cls-3"><g id="Group_795" data-name="Group 795"><g id="Line_639" data-name="Line 639"><rect class="cls-4" x="108.62" y="353.92" width="11.87" height="4"/></g></g><g id="Group_796" data-name="Group 796"><g id="Line_640" data-name="Line 640"><rect class="cls-4" x="131.62" y="353.92" width="11.87" height="4"/></g></g><g id="Group_797" data-name="Group 797"><g id="Line_641" data-name="Line 641"><rect class="cls-4" x="154.62" y="353.92" width="11.87" height="4"/></g></g><g id="Group_798" data-name="Group 798"><g id="Line_642" data-name="Line 642"><rect class="cls-4" x="177.62" y="353.92" width="11.87" height="4"/></g></g><g id="Group_799" data-name="Group 799"><g id="Line_643" data-name="Line 643"><rect class="cls-4" x="200.62" y="353.92" width="11.87" height="4"/></g></g><g id="Group_800" data-name="Group 800"><g id="Line_644" data-name="Line 644"><rect class="cls-4" x="223.62" y="353.92" width="11.87" height="4"/></g></g><g id="Group_801" data-name="Group 801"><g id="Line_645" data-name="Line 645"><rect class="cls-4" x="246.62" y="353.92" width="11.87" height="4"/></g></g><g id="Group_802" data-name="Group 802"><g id="Line_646" data-name="Line 646"><rect class="cls-4" x="269.62" y="353.92" width="11.87" height="4"/></g></g><g id="Group_803" data-name="Group 803"><g id="Line_647" data-name="Line 647"><rect class="cls-4" x="292.62" y="353.92" width="11.87" height="4"/></g></g><g id="Group_804" data-name="Group 804"><g id="Line_648" data-name="Line 648"><rect class="cls-4" x="315.62" y="353.92" width="11.87" height="4"/></g></g><g id="Group_805" data-name="Group 805"><g id="Line_649" data-name="Line 649"><rect class="cls-4" x="338.62" y="353.92" width="11.87" height="4"/></g></g><g id="Group_806" data-name="Group 806"><g id="Line_650" data-name="Line 650"><rect class="cls-4" x="361.62" y="353.92" width="11.87" height="4"/></g></g><g id="Group_807" data-name="Group 807"><g id="Line_651" data-name="Line 651"><rect class="cls-4" x="384.62" y="353.92" width="11.87" height="4"/></g></g><g id="Group_808" data-name="Group 808"><g id="Line_652" data-name="Line 652"><rect class="cls-4" x="407.62" y="353.92" width="11.87" height="4"/></g></g><g id="Group_809" data-name="Group 809"><g id="Line_653" data-name="Line 653"><rect class="cls-4" x="430.62" y="353.92" width="11.87" height="4"/></g></g><g id="Group_810" data-name="Group 810"><g id="Line_654" data-name="Line 654"><rect class="cls-4" x="453.62" y="353.92" width="11.87" height="4"/></g></g><g id="Group_811" data-name="Group 811"><g id="Line_655" data-name="Line 655"><rect class="cls-4" x="476.62" y="353.92" width="11.87" height="4"/></g></g><g id="Group_812" data-name="Group 812"><g id="Line_656" data-name="Line 656"><rect class="cls-4" x="499.62" y="353.92" width="11.87" height="4"/></g></g><g id="Group_813" data-name="Group 813"><g id="Line_657" data-name="Line 657"><rect class="cls-4" x="522.62" y="353.92" width="11.87" height="4"/></g></g><g id="Group_814" data-name="Group 814"><g id="Line_658" data-name="Line 658"><rect class="cls-4" x="545.62" y="353.92" width="11.87" height="4"/></g></g><g id="Group_815" data-name="Group 815"><g id="Line_659" data-name="Line 659"><rect class="cls-4" x="568.62" y="353.92" width="11.87" height="4"/></g></g><g id="Group_816" data-name="Group 816"><g id="Line_660" data-name="Line 660"><rect class="cls-4" x="591.62" y="353.92" width="11.87" height="4"/></g></g><g id="Group_817" data-name="Group 817"><g id="Line_661" data-name="Line 661"><rect class="cls-4" x="614.62" y="353.92" width="11.87" height="4"/></g></g><g id="Group_818" data-name="Group 818"><g id="Line_662" data-name="Line 662"><rect class="cls-4" x="637.62" y="353.92" width="11.87" height="4"/></g></g><g id="Group_819" data-name="Group 819"><g id="Line_663" data-name="Line 663"><rect class="cls-4" x="660.62" y="353.92" width="11.87" height="4"/></g></g><g id="Group_819-2" data-name="Group 819-2"><g id="Line_663-2" data-name="Line 663-2"><rect class="cls-4" x="683.62" y="353.92" width="11.87" height="4"/></g></g><g id="Group_819-3" data-name="Group 819-3"><g id="Line_663-3" data-name="Line 663-3"><rect class="cls-4" x="706.62" y="353.92" width="11.87" height="4"/></g></g><g id="Group_819-4" data-name="Group 819-4"><g id="Line_663-4" data-name="Line 663-4"><rect class="cls-4" x="729.62" y="353.92" width="11.87" height="4"/></g></g><g id="Group_819-5" data-name="Group 819-5"><g id="Line_663-5" data-name="Line 663-5"><rect class="cls-4" x="752.62" y="353.92" width="11.87" height="4"/></g></g><g id="Group_819-6" data-name="Group 819-6"><g id="Line_663-6" data-name="Line 663-6"><rect class="cls-4" x="775.62" y="353.92" width="11.87" height="4"/></g></g><g id="Group_819-7" data-name="Group 819-7"><g id="Line_663-7" data-name="Line 663-7"><rect class="cls-4" x="798.62" y="353.92" width="11.87" height="4"/></g></g><g id="Group_819-8" data-name="Group 819-8"><g id="Line_663-8" data-name="Line 663-8"><rect class="cls-4" x="821.62" y="353.92" width="11.87" height="4"/></g></g><g id="Group_819-9" data-name="Group 819-9"><g id="Line_663-9" data-name="Line 663-9"><rect class="cls-4" x="844.62" y="353.92" width="11.87" height="4"/></g></g><g id="Group_819-10" data-name="Group 819-10"><g id="Line_663-10" data-name="Line 663-10"><rect class="cls-4" x="867.62" y="353.92" width="11.87" height="4"/></g></g><g id="Group_819-11" data-name="Group 819-11"><g id="Line_663-11" data-name="Line 663-11"><rect class="cls-4" x="890.62" y="353.92" width="11.87" height="4"/></g></g></g></g><g class="cls-5"><g id="Repeat_Grid_14" data-name="Repeat Grid 14" class="cls-3"><g id="Group_847" data-name="Group 847"><g id="Line_691" data-name="Line 691"><rect class="cls-6" x="108.31" y="222.59" width="11.87" height="4"/></g></g><g id="Group_848" data-name="Group 848"><g id="Line_692" data-name="Line 692"><rect class="cls-6" x="131.31" y="222.59" width="11.87" height="4"/></g></g><g id="Group_849" data-name="Group 849"><g id="Line_693" data-name="Line 693"><rect class="cls-6" x="154.31" y="222.59" width="11.87" height="4"/></g></g><g id="Group_850" data-name="Group 850"><g id="Line_694" data-name="Line 694"><rect class="cls-6" x="177.31" y="222.59" width="11.87" height="4"/></g></g><g id="Group_851" data-name="Group 851"><g id="Line_695" data-name="Line 695"><rect class="cls-6" x="200.31" y="222.59" width="11.87" height="4"/></g></g><g id="Group_852" data-name="Group 852"><g id="Line_696" data-name="Line 696"><rect class="cls-6" x="223.31" y="222.59" width="11.87" height="4"/></g></g><g id="Group_853" data-name="Group 853"><g id="Line_697" data-name="Line 697"><rect class="cls-6" x="246.31" y="222.59" width="11.87" height="4"/></g></g><g id="Group_854" data-name="Group 854"><g id="Line_698" data-name="Line 698"><rect class="cls-6" x="269.31" y="222.59" width="11.87" height="4"/></g></g><g id="Group_855" data-name="Group 855"><g id="Line_699" data-name="Line 699"><rect class="cls-6" x="292.31" y="222.59" width="11.87" height="4"/></g></g><g id="Group_856" data-name="Group 856"><g id="Line_700" data-name="Line 700"><rect class="cls-6" x="315.31" y="222.59" width="11.87" height="4"/></g></g><g id="Group_857" data-name="Group 857"><g id="Line_701" data-name="Line 701"><rect class="cls-6" x="338.31" y="222.59" width="11.87" height="4"/></g></g><g id="Group_858" data-name="Group 858"><g id="Line_702" data-name="Line 702"><rect class="cls-6" x="361.31" y="222.59" width="11.87" height="4"/></g></g><g id="Group_859" data-name="Group 859"><g id="Line_703" data-name="Line 703"><rect class="cls-6" x="384.31" y="222.59" width="11.87" height="4"/></g></g><g id="Group_860" data-name="Group 860"><g id="Line_704" data-name="Line 704"><rect class="cls-6" x="407.31" y="222.59" width="11.87" height="4"/></g></g><g id="Group_861" data-name="Group 861"><g id="Line_705" data-name="Line 705"><rect class="cls-6" x="430.31" y="222.59" width="11.87" height="4"/></g></g><g id="Group_862" data-name="Group 862"><g id="Line_706" data-name="Line 706"><rect class="cls-6" x="453.31" y="222.59" width="11.87" height="4"/></g></g><g id="Group_863" data-name="Group 863"><g id="Line_707" data-name="Line 707"><rect class="cls-6" x="476.31" y="222.59" width="11.87" height="4"/></g></g><g id="Group_864" data-name="Group 864"><g id="Line_708" data-name="Line 708"><rect class="cls-6" x="499.31" y="222.59" width="11.87" height="4"/></g></g><g id="Group_865" data-name="Group 865"><g id="Line_709" data-name="Line 709"><rect class="cls-6" x="522.31" y="222.59" width="11.87" height="4"/></g></g><g id="Group_866" data-name="Group 866"><g id="Line_710" data-name="Line 710"><rect class="cls-6" x="545.31" y="222.59" width="11.87" height="4"/></g></g><g id="Group_867" data-name="Group 867"><g id="Line_711" data-name="Line 711"><rect class="cls-6" x="568.31" y="222.59" width="11.87" height="4"/></g></g><g id="Group_868" data-name="Group 868"><g id="Line_712" data-name="Line 712"><rect class="cls-6" x="591.31" y="222.59" width="11.87" height="4"/></g></g><g id="Group_869" data-name="Group 869"><g id="Line_713" data-name="Line 713"><rect class="cls-6" x="614.31" y="222.59" width="11.87" height="4"/></g></g><g id="Group_870" data-name="Group 870"><g id="Line_714" data-name="Line 714"><rect class="cls-6" x="637.31" y="222.59" width="11.87" height="4"/></g></g><g id="Group_871" data-name="Group 871"><g id="Line_715" data-name="Line 715"><rect class="cls-6" x="660.31" y="222.59" width="11.87" height="4"/></g></g><g id="Group_872" data-name="Group 872"><g id="Line_716" data-name="Line 716"><rect class="cls-6" x="683.31" y="222.59" width="11.87" height="4"/></g></g><g id="Group_872-2" data-name="Group 872-2"><g id="Line_716-2" data-name="Line 716-2"><rect class="cls-6" x="706.31" y="222.59" width="11.87" height="4"/></g></g><g id="Group_872-3" data-name="Group 872-3"><g id="Line_716-3" data-name="Line 716-3"><rect class="cls-6" x="729.31" y="222.59" width="11.87" height="4"/></g></g><g id="Group_872-4" data-name="Group 872-4"><g id="Line_716-4" data-name="Line 716-4"><rect class="cls-6" x="752.31" y="222.59" width="11.87" height="4"/></g></g><g id="Group_872-5" data-name="Group 872-5"><g id="Line_716-5" data-name="Line 716-5"><rect class="cls-6" x="775.31" y="222.59" width="11.87" height="4"/></g></g><g id="Group_872-6" data-name="Group 872-6"><g id="Line_716-6" data-name="Line 716-6"><rect class="cls-6" x="798.31" y="222.59" width="11.87" height="4"/></g></g><g id="Group_872-7" data-name="Group 872-7"><g id="Line_716-7" data-name="Line 716-7"><rect class="cls-6" x="821.31" y="222.59" width="11.87" height="4"/></g></g><g id="Group_872-8" data-name="Group 872-8"><g id="Line_716-8" data-name="Line 716-8"><rect class="cls-6" x="844.31" y="222.59" width="11.87" height="4"/></g></g><g id="Group_872-9" data-name="Group 872-9"><g id="Line_716-9" data-name="Line 716-9"><rect class="cls-6" x="867.31" y="222.59" width="11.87" height="4"/></g></g><g id="Group_872-10" data-name="Group 872-10"><g id="Line_716-10" data-name="Line 716-10"><rect class="cls-6" x="890.31" y="222.59" width="11.87" height="4"/></g></g></g></g><g class="cls-7"><g id="Repeat_Grid_15" data-name="Repeat Grid 15" class="cls-3"><g id="Group_902" data-name="Group 902"><g id="Line_746" data-name="Line 746"><rect class="cls-6" x="107.34" y="106.5" width="11.87" height="4"/></g></g><g id="Group_903" data-name="Group 903"><g id="Line_747" data-name="Line 747"><rect class="cls-6" x="130.34" y="106.5" width="11.87" height="4"/></g></g><g id="Group_904" data-name="Group 904"><g id="Line_748" data-name="Line 748"><rect class="cls-6" x="153.34" y="106.5" width="11.87" height="4"/></g></g><g id="Group_905" data-name="Group 905"><g id="Line_749" data-name="Line 749"><rect class="cls-6" x="176.34" y="106.5" width="11.87" height="4"/></g></g><g id="Group_906" data-name="Group 906"><g id="Line_750" data-name="Line 750"><rect class="cls-6" x="199.34" y="106.5" width="11.87" height="4"/></g></g><g id="Group_907" data-name="Group 907"><g id="Line_751" data-name="Line 751"><rect class="cls-6" x="222.34" y="106.5" width="11.87" height="4"/></g></g><g id="Group_908" data-name="Group 908"><g id="Line_752" data-name="Line 752"><rect class="cls-6" x="245.34" y="106.5" width="11.87" height="4"/></g></g><g id="Group_909" data-name="Group 909"><g id="Line_753" data-name="Line 753"><rect class="cls-6" x="268.34" y="106.5" width="11.87" height="4"/></g></g><g id="Group_910" data-name="Group 910"><g id="Line_754" data-name="Line 754"><rect class="cls-6" x="291.34" y="106.5" width="11.87" height="4"/></g></g><g id="Group_911" data-name="Group 911"><g id="Line_755" data-name="Line 755"><rect class="cls-6" x="314.34" y="106.5" width="11.87" height="4"/></g></g><g id="Group_912" data-name="Group 912"><g id="Line_756" data-name="Line 756"><rect class="cls-6" x="337.34" y="106.5" width="11.87" height="4"/></g></g><g id="Group_913" data-name="Group 913"><g id="Line_757" data-name="Line 757"><rect class="cls-6" x="360.34" y="106.5" width="11.87" height="4"/></g></g><g id="Group_914" data-name="Group 914"><g id="Line_758" data-name="Line 758"><rect class="cls-6" x="383.34" y="106.5" width="11.87" height="4"/></g></g><g id="Group_915" data-name="Group 915"><g id="Line_759" data-name="Line 759"><rect class="cls-6" x="406.34" y="106.5" width="11.87" height="4"/></g></g><g id="Group_916" data-name="Group 916"><g id="Line_760" data-name="Line 760"><rect class="cls-6" x="429.34" y="106.5" width="11.87" height="4"/></g></g><g id="Group_917" data-name="Group 917"><g id="Line_761" data-name="Line 761"><rect class="cls-6" x="452.34" y="106.5" width="11.87" height="4"/></g></g><g id="Group_918" data-name="Group 918"><g id="Line_762" data-name="Line 762"><rect class="cls-6" x="475.34" y="106.5" width="11.87" height="4"/></g></g><g id="Group_919" data-name="Group 919"><g id="Line_763" data-name="Line 763"><rect class="cls-6" x="498.34" y="106.5" width="11.87" height="4"/></g></g><g id="Group_920" data-name="Group 920"><g id="Line_764" data-name="Line 764"><rect class="cls-6" x="521.34" y="106.5" width="11.87" height="4"/></g></g><g id="Group_921" data-name="Group 921"><g id="Line_765" data-name="Line 765"><rect class="cls-6" x="544.34" y="106.5" width="11.87" height="4"/></g></g><g id="Group_922" data-name="Group 922"><g id="Line_766" data-name="Line 766"><rect class="cls-6" x="567.34" y="106.5" width="11.87" height="4"/></g></g><g id="Group_923" data-name="Group 923"><g id="Line_767" data-name="Line 767"><rect class="cls-6" x="590.34" y="106.5" width="11.87" height="4"/></g></g><g id="Group_924" data-name="Group 924"><g id="Line_768" data-name="Line 768"><rect class="cls-6" x="613.34" y="106.5" width="11.87" height="4"/></g></g><g id="Group_925" data-name="Group 925"><g id="Line_769" data-name="Line 769"><rect class="cls-6" x="636.34" y="106.5" width="11.87" height="4"/></g></g><g id="Group_926" data-name="Group 926"><g id="Line_770" data-name="Line 770"><rect class="cls-6" x="659.34" y="106.5" width="11.87" height="4"/></g></g><g id="Group_927" data-name="Group 927"><g id="Line_771" data-name="Line 771"><rect class="cls-6" x="682.34" y="106.5" width="11.87" height="4"/></g></g><g id="Group_927-2" data-name="Group 927-2"><g id="Line_771-2" data-name="Line 771-2"><rect class="cls-6" x="705.34" y="106.5" width="11.87" height="4"/></g></g><g id="Group_927-3" data-name="Group 927-3"><g id="Line_771-3" data-name="Line 771-3"><rect class="cls-6" x="728.34" y="106.5" width="11.87" height="4"/></g></g><g id="Group_927-4" data-name="Group 927-4"><g id="Line_771-4" data-name="Line 771-4"><rect class="cls-6" x="751.34" y="106.5" width="11.87" height="4"/></g></g><g id="Group_927-5" data-name="Group 927-5"><g id="Line_771-5" data-name="Line 771-5"><rect class="cls-6" x="774.34" y="106.5" width="11.87" height="4"/></g></g><g id="Group_927-6" data-name="Group 927-6"><g id="Line_771-6" data-name="Line 771-6"><rect class="cls-6" x="797.34" y="106.5" width="11.87" height="4"/></g></g><g id="Group_927-7" data-name="Group 927-7"><g id="Line_771-7" data-name="Line 771-7"><rect class="cls-6" x="820.34" y="106.5" width="11.87" height="4"/></g></g><g id="Group_927-8" data-name="Group 927-8"><g id="Line_771-8" data-name="Line 771-8"><rect class="cls-6" x="843.34" y="106.5" width="11.87" height="4"/></g></g><g id="Group_927-9" data-name="Group 927-9"><g id="Line_771-9" data-name="Line 771-9"><rect class="cls-6" x="866.34" y="106.5" width="11.87" height="4"/></g></g><g id="Group_927-10" data-name="Group 927-10"><g id="Line_771-10" data-name="Line 771-10"><rect class="cls-6" x="889.34" y="106.5" width="11.87" height="4"/></g></g></g></g><g id="_0" data-name=" 0" class="cls-8"><g class="cls-8"><path class="cls-9" d="M92.24,359.66a3.79,3.79,0,0,1-1.66-.36,3.74,3.74,0,0,1-1.27-1,4.54,4.54,0,0,1-.81-1.49,5.81,5.81,0,0,1-.29-1.85v0a5.68,5.68,0,0,1,.29-1.85,4.63,4.63,0,0,1,.83-1.49,3.84,3.84,0,0,1,1.28-1,3.81,3.81,0,0,1,4.58,1,4.62,4.62,0,0,1,.82,1.49,5.69,5.69,0,0,1,.29,1.85v0A5.69,5.69,0,0,1,96,356.8a4.64,4.64,0,0,1-.83,1.5,3.84,3.84,0,0,1-1.28,1A3.74,3.74,0,0,1,92.24,359.66Zm0-1.81a1.59,1.59,0,0,0,.82-.21,2,2,0,0,0,.62-.6,2.92,2.92,0,0,0,.4-.91,4.6,4.6,0,0,0,.14-1.15v0a4.38,4.38,0,0,0-.14-1.15,3,3,0,0,0-.41-.92,2,2,0,0,0-.64-.61,1.56,1.56,0,0,0-.81-.22,1.58,1.58,0,0,0-.82.21,1.89,1.89,0,0,0-.62.6,3.13,3.13,0,0,0-.4.91,4.38,4.38,0,0,0-.14,1.15v0a4.46,4.46,0,0,0,.14,1.16,3,3,0,0,0,.4.92,2,2,0,0,0,.63.6A1.58,1.58,0,0,0,92.27,357.85Z"/></g></g><g id="_5000" data-name=" 5000" class="cls-8"><g class="cls-8"><path class="cls-9" d="M64.3,229.66a4.74,4.74,0,0,1-1.92-.36,5.14,5.14,0,0,1-1.48-1l1.21-1.44a4.74,4.74,0,0,0,1,.73,2.49,2.49,0,0,0,1.13.26,1.73,1.73,0,0,0,1.11-.33,1.13,1.13,0,0,0,.41-.94v0a1.07,1.07,0,0,0-.45-.92,1.93,1.93,0,0,0-1.16-.33,3.31,3.31,0,0,0-.81.1,4.51,4.51,0,0,0-.71.24l-1.16-.77.26-4.48h5.6v1.75H63.49l-.1,1.58.55-.11a4,4,0,0,1,.65,0,4.44,4.44,0,0,1,1.24.17,2.91,2.91,0,0,1,1,.52,2.39,2.39,0,0,1,.69.9,3.19,3.19,0,0,1,.25,1.32v0a3.27,3.27,0,0,1-.25,1.3,2.82,2.82,0,0,1-.7,1,3.12,3.12,0,0,1-1.1.63A4.4,4.4,0,0,1,64.3,229.66Z"/><path class="cls-9" d="M73.26,229.66a3.79,3.79,0,0,1-1.66-.36,3.74,3.74,0,0,1-1.27-1,4.54,4.54,0,0,1-.81-1.49,5.81,5.81,0,0,1-.29-1.85v0a5.68,5.68,0,0,1,.29-1.85,4.63,4.63,0,0,1,.83-1.49,3.84,3.84,0,0,1,1.28-1,3.81,3.81,0,0,1,4.58,1,4.62,4.62,0,0,1,.82,1.49,5.69,5.69,0,0,1,.29,1.85v0A5.69,5.69,0,0,1,77,226.8a4.64,4.64,0,0,1-.83,1.5,3.84,3.84,0,0,1-1.28,1A3.74,3.74,0,0,1,73.26,229.66Zm0-1.81a1.59,1.59,0,0,0,.82-.21,2,2,0,0,0,.62-.6,2.92,2.92,0,0,0,.4-.91,4.6,4.6,0,0,0,.14-1.15v0a4.38,4.38,0,0,0-.14-1.15,3,3,0,0,0-.41-.92,2,2,0,0,0-.64-.61,1.56,1.56,0,0,0-.81-.22,1.58,1.58,0,0,0-.82.21,1.89,1.89,0,0,0-.62.6,3.13,3.13,0,0,0-.4.91,4.38,4.38,0,0,0-.14,1.15v0a4.46,4.46,0,0,0,.14,1.16,3,3,0,0,0,.4.92,2,2,0,0,0,.63.6A1.58,1.58,0,0,0,73.29,227.85Z"/><path class="cls-9" d="M82.75,229.66a3.79,3.79,0,0,1-1.66-.36,3.74,3.74,0,0,1-1.27-1,4.54,4.54,0,0,1-.81-1.49,5.81,5.81,0,0,1-.29-1.85v0A5.68,5.68,0,0,1,79,223.1a4.63,4.63,0,0,1,.83-1.49,3.84,3.84,0,0,1,1.28-1,3.81,3.81,0,0,1,4.58,1,4.62,4.62,0,0,1,.82,1.49,5.69,5.69,0,0,1,.29,1.85v0a5.69,5.69,0,0,1-.29,1.85,4.64,4.64,0,0,1-.83,1.5,3.84,3.84,0,0,1-1.28,1A3.74,3.74,0,0,1,82.75,229.66Zm0-1.81a1.59,1.59,0,0,0,.82-.21,2,2,0,0,0,.62-.6,2.92,2.92,0,0,0,.4-.91,4.6,4.6,0,0,0,.14-1.15v0a4.38,4.38,0,0,0-.14-1.15,3,3,0,0,0-.41-.92,2,2,0,0,0-.64-.61,1.56,1.56,0,0,0-.81-.22,1.58,1.58,0,0,0-.82.21,1.89,1.89,0,0,0-.62.6,3.13,3.13,0,0,0-.4.91,4.38,4.38,0,0,0-.14,1.15v0a4.46,4.46,0,0,0,.14,1.16,3,3,0,0,0,.4.92,2,2,0,0,0,.63.6A1.58,1.58,0,0,0,82.78,227.85Z"/><path class="cls-9" d="M92.24,229.66a3.79,3.79,0,0,1-1.66-.36,3.74,3.74,0,0,1-1.27-1,4.54,4.54,0,0,1-.81-1.49,5.81,5.81,0,0,1-.29-1.85v0a5.68,5.68,0,0,1,.29-1.85,4.63,4.63,0,0,1,.83-1.49,3.84,3.84,0,0,1,1.28-1,3.81,3.81,0,0,1,4.58,1,4.62,4.62,0,0,1,.82,1.49,5.69,5.69,0,0,1,.29,1.85v0A5.69,5.69,0,0,1,96,226.8a4.64,4.64,0,0,1-.83,1.5,3.84,3.84,0,0,1-1.28,1A3.74,3.74,0,0,1,92.24,229.66Zm0-1.81a1.59,1.59,0,0,0,.82-.21,2,2,0,0,0,.62-.6,2.92,2.92,0,0,0,.4-.91,4.6,4.6,0,0,0,.14-1.15v0a4.38,4.38,0,0,0-.14-1.15,3,3,0,0,0-.41-.92,2,2,0,0,0-.64-.61,1.56,1.56,0,0,0-.81-.22,1.58,1.58,0,0,0-.82.21,1.89,1.89,0,0,0-.62.6,3.13,3.13,0,0,0-.4.91,4.38,4.38,0,0,0-.14,1.15v0a4.46,4.46,0,0,0,.14,1.16,3,3,0,0,0,.4.92,2,2,0,0,0,.63.6A1.58,1.58,0,0,0,92.27,227.85Z"/></g></g><g id="_7745" data-name=" 7745" class="cls-8"><g class="cls-8"><path class="cls-9" d="M70,107.13H65.75V105.4H72.3v1.51l-4.08,7.59H66Z"/><path class="cls-9" d="M78.07,107.13H73.79V105.4h6.55v1.51l-4.08,7.59H74Z"/><path class="cls-9" d="M86.13,112.54H81.69l-.33-1.42,5-5.79H88v5.58h1.22v1.63H88v2H86.13Zm0-1.62v-2.83l-2.42,2.83Z"/><path class="cls-9" d="M93.88,114.66a4.74,4.74,0,0,1-1.92-.36,5.14,5.14,0,0,1-1.48-1l1.21-1.44a4.74,4.74,0,0,0,1,.73,2.49,2.49,0,0,0,1.13.26,1.73,1.73,0,0,0,1.11-.33,1.13,1.13,0,0,0,.41-.94v0a1.07,1.07,0,0,0-.45-.92,1.93,1.93,0,0,0-1.16-.33,3.31,3.31,0,0,0-.81.1,4.51,4.51,0,0,0-.71.24l-1.16-.77.26-4.48h5.6v1.75H93.06l-.1,1.58.55-.11a4,4,0,0,1,.65,0,4.44,4.44,0,0,1,1.24.17,2.91,2.91,0,0,1,1,.52,2.39,2.39,0,0,1,.69.9,3.19,3.19,0,0,1,.25,1.32v0a3.27,3.27,0,0,1-.25,1.3,2.82,2.82,0,0,1-.7,1,3.12,3.12,0,0,1-1.1.63A4.4,4.4,0,0,1,93.88,114.66Z"/></g></g><g id="OKT" class="cls-8"><g class="cls-8"><path class="cls-9" d="M112.11,383.63a4.2,4.2,0,0,1-1.64-.31,4.08,4.08,0,0,1-1.29-.85,3.78,3.78,0,0,1-.85-1.25,4,4,0,0,1-.3-1.55v0a3.89,3.89,0,0,1,.31-1.55,3.94,3.94,0,0,1,2.15-2.12,4.46,4.46,0,0,1,3.28,0,4.08,4.08,0,0,1,1.29.85,3.81,3.81,0,0,1,.85,1.25,4,4,0,0,1,.3,1.55v0a3.89,3.89,0,0,1-.31,1.54,3.93,3.93,0,0,1-2.15,2.12A4.24,4.24,0,0,1,112.11,383.63Zm0-1.56a2.31,2.31,0,0,0,.94-.19,2.13,2.13,0,0,0,.73-.52,2.43,2.43,0,0,0,.47-.76,2.53,2.53,0,0,0,.17-.93v0a2.58,2.58,0,0,0-.17-.94,2.31,2.31,0,0,0-1.23-1.29,2.25,2.25,0,0,0-.94-.19,2.3,2.3,0,0,0-.94.19,2.15,2.15,0,0,0-.73.52,2.45,2.45,0,0,0-.47.76,2.52,2.52,0,0,0-.17.93v0a2.56,2.56,0,0,0,.17.93,2.32,2.32,0,0,0,1.22,1.29A2.25,2.25,0,0,0,112.13,382.07Z"/><path class="cls-9" d="M117.72,375.8h1.69v3.37l3.12-3.37h2l-3.14,3.27,3.28,4.43h-2l-2.39-3.28-.89.92v2.35h-1.69Z"/><path class="cls-9" d="M127.54,377.36H125.2V375.8h6.38v1.56h-2.34v6.14h-1.69Z"/></g></g><g id="Line_805" data-name="Line 805" class="cls-10"><rect class="cls-9" x="110.2" y="400.18" width="1" height="19.25"/></g><g id="Line_806" data-name="Line 806" class="cls-10"><rect class="cls-9" x="115.73" y="400.18" width="1" height="7.09"/></g><g id="Line_807" data-name="Line 807" class="cls-10"><rect class="cls-9" x="122.65" y="400.18" width="1" height="7.09"/></g><g id="Line_808" data-name="Line 808" class="cls-10"><rect class="cls-9" x="129.58" y="400.18" width="1" height="7.09"/></g><g id="Line_809" data-name="Line 809" class="cls-10"><rect class="cls-9" x="136.5" y="400.18" width="1" height="7.09"/></g><g id="Line_810" data-name="Line 810" class="cls-10"><rect class="cls-9" x="143.42" y="400.18" width="1" height="7.09"/></g><g id="Line_811" data-name="Line 811" class="cls-10"><rect class="cls-9" x="150.34" y="400.18" width="1" height="7.09"/></g><g id="Line_812" data-name="Line 812" class="cls-10"><rect class="cls-9" x="157.26" y="400.18" width="1" height="7.09"/></g><g id="Line_813" data-name="Line 813" class="cls-10"><rect class="cls-9" x="164.18" y="400.18" width="1" height="7.09"/></g><g id="Line_814" data-name="Line 814" class="cls-10"><rect class="cls-9" x="171.1" y="400.18" width="1" height="7.09"/></g><g id="NOV" class="cls-8"><g class="cls-8"><path class="cls-9" d="M175.51,375.8h1.56l3.61,4.74V375.8h1.67v7.7h-1.44l-3.73-4.89v4.89h-1.67Z"/><path class="cls-9" d="M187.94,383.63a4.2,4.2,0,0,1-1.64-.31,4.08,4.08,0,0,1-1.29-.85,3.78,3.78,0,0,1-.85-1.25,4,4,0,0,1-.3-1.55v0a3.89,3.89,0,0,1,.31-1.55,3.94,3.94,0,0,1,2.15-2.12,4.46,4.46,0,0,1,3.28,0,4.08,4.08,0,0,1,1.29.85,3.81,3.81,0,0,1,.85,1.25,4,4,0,0,1,.3,1.55v0a3.89,3.89,0,0,1-.31,1.54,3.93,3.93,0,0,1-2.15,2.12A4.24,4.24,0,0,1,187.94,383.63Zm0-1.56a2.31,2.31,0,0,0,.94-.19,2.13,2.13,0,0,0,.73-.52,2.43,2.43,0,0,0,.47-.76,2.53,2.53,0,0,0,.17-.93v0a2.58,2.58,0,0,0-.17-.94,2.31,2.31,0,0,0-1.23-1.29,2.25,2.25,0,0,0-.94-.19,2.3,2.3,0,0,0-.94.19,2.15,2.15,0,0,0-.73.52,2.45,2.45,0,0,0-.47.76,2.52,2.52,0,0,0-.17.93v0a2.56,2.56,0,0,0,.17.93,2.32,2.32,0,0,0,1.22,1.29A2.25,2.25,0,0,0,188,382.07Z"/><path class="cls-9" d="M192.89,375.8h1.87l2,5.42,2-5.42h1.83l-3.11,7.75H196Z"/></g></g><g id="Line_815" data-name="Line 815" class="cls-10"><rect class="cls-9" x="178.02" y="400.18" width="1" height="19.25"/></g><g id="Line_816" data-name="Line 816" class="cls-10"><rect class="cls-9" x="183.56" y="400.18" width="1" height="7.09"/></g><g id="Line_817" data-name="Line 817" class="cls-10"><rect class="cls-9" x="190.48" y="400.18" width="1" height="7.09"/></g><g id="Line_818" data-name="Line 818" class="cls-10"><rect class="cls-9" x="197.4" y="400.18" width="1" height="7.09"/></g><g id="Line_819" data-name="Line 819" class="cls-10"><rect class="cls-9" x="204.32" y="400.18" width="1" height="7.09"/></g><g id="Line_820" data-name="Line 820" class="cls-10"><rect class="cls-9" x="211.24" y="400.18" width="1" height="7.09"/></g><g id="Line_821" data-name="Line 821" class="cls-10"><rect class="cls-9" x="218.16" y="400.18" width="1" height="7.09"/></g><g id="Line_822" data-name="Line 822" class="cls-10"><rect class="cls-9" x="225.08" y="400.18" width="1" height="7.09"/></g><g id="Line_823" data-name="Line 823" class="cls-10"><rect class="cls-9" x="232" y="400.18" width="1" height="7.09"/></g><g id="Line_824" data-name="Line 824" class="cls-10"><rect class="cls-9" x="238.92" y="400.18" width="1" height="7.09"/></g><g id="DEC" class="cls-8"><g class="cls-8"><path class="cls-9" d="M246.94,375.8h3a4.55,4.55,0,0,1,1.66.29,3.9,3.9,0,0,1,1.3.81,3.6,3.6,0,0,1,.84,1.21,3.83,3.83,0,0,1,.3,1.51v0a3.87,3.87,0,0,1-.3,1.52,3.58,3.58,0,0,1-.84,1.22,4,4,0,0,1-1.3.81,4.47,4.47,0,0,1-1.66.3h-3Zm3,6.17a2.61,2.61,0,0,0,.95-.17,2,2,0,0,0,.73-.47,2.22,2.22,0,0,0,.47-.73,2.47,2.47,0,0,0,.17-.94v0a2.52,2.52,0,0,0-.17-.94,2.2,2.2,0,0,0-.47-.74,2.11,2.11,0,0,0-.73-.48,2.55,2.55,0,0,0-.95-.17h-1.31V382Z"/><path class="cls-9" d="M255.54,375.8h5.8v1.51h-4.12v1.56h3.63v1.51h-3.63V382h4.18v1.51h-5.85Z"/><path class="cls-9" d="M266.52,383.63a4,4,0,0,1-1.57-.31,3.87,3.87,0,0,1-1.25-.84,3.83,3.83,0,0,1-.83-1.26,4.06,4.06,0,0,1-.3-1.55v0a4,4,0,0,1,.3-1.55,4,4,0,0,1,.83-1.26A3.82,3.82,0,0,1,265,376a4.12,4.12,0,0,1,1.63-.31,5.1,5.1,0,0,1,1,.09,4.12,4.12,0,0,1,.81.24,3.52,3.52,0,0,1,.67.37,4.46,4.46,0,0,1,.57.48l-1.08,1.24a4.12,4.12,0,0,0-.92-.64,2.34,2.34,0,0,0-1.05-.23,2.13,2.13,0,0,0-1.61.7,2.43,2.43,0,0,0-.46.76,2.6,2.6,0,0,0-.17.93v0a2.64,2.64,0,0,0,.17.93,2.46,2.46,0,0,0,.46.77,2.12,2.12,0,0,0,1.61.71,2.36,2.36,0,0,0,1.12-.24,4.31,4.31,0,0,0,.91-.66l1.08,1.09a5.59,5.59,0,0,1-.62.57,3.66,3.66,0,0,1-.7.43,3.57,3.57,0,0,1-.83.27A5,5,0,0,1,266.52,383.63Z"/></g></g><g id="Line_825" data-name="Line 825" class="cls-10"><rect class="cls-9" x="245.84" y="400.18" width="1" height="19.25"/></g><g id="Line_826" data-name="Line 826" class="cls-10"><rect class="cls-9" x="251.38" y="400.18" width="1" height="7.09"/></g><g id="Line_827" data-name="Line 827" class="cls-10"><rect class="cls-9" x="258.3" y="400.18" width="1" height="7.09"/></g><g id="Line_828" data-name="Line 828" class="cls-10"><rect class="cls-9" x="265.22" y="400.18" width="1" height="7.09"/></g><g id="Line_829" data-name="Line 829" class="cls-10"><rect class="cls-9" x="272.14" y="400.18" width="1" height="7.09"/></g><g id="Line_830" data-name="Line 830" class="cls-10"><rect class="cls-9" x="279.06" y="400.18" width="1" height="7.09"/></g><g id="Line_831" data-name="Line 831" class="cls-10"><rect class="cls-9" x="285.98" y="400.18" width="1" height="7.09"/></g><g id="Line_832" data-name="Line 832" class="cls-10"><rect class="cls-9" x="292.9" y="400.18" width="1" height="7.09"/></g><g id="Line_833" data-name="Line 833" class="cls-10"><rect class="cls-9" x="299.83" y="400.18" width="1" height="7.09"/></g><g id="Line_834" data-name="Line 834" class="cls-10"><rect class="cls-9" x="306.75" y="400.18" width="1" height="7.09"/></g><g id="JAN" class="cls-8"><g class="cls-8"><path class="cls-9" d="M315.51,383.61a3.06,3.06,0,0,1-1.51-.34,3.54,3.54,0,0,1-1-.81l1.07-1.19a3,3,0,0,0,.67.57,1.4,1.4,0,0,0,.74.2,1,1,0,0,0,.76-.3,1.42,1.42,0,0,0,.27-1v-5h1.74v5a3.46,3.46,0,0,1-.19,1.2,2.34,2.34,0,0,1-.54.86,2.27,2.27,0,0,1-.86.53A3.38,3.38,0,0,1,315.51,383.61Z"/><path class="cls-9" d="M322.61,375.75h1.56l3.3,7.75H325.7l-.7-1.73h-3.26l-.7,1.73h-1.73Zm1.78,4.53-1-2.5-1,2.5Z"/><path class="cls-9" d="M328.66,375.8h1.56l3.61,4.74V375.8h1.67v7.7h-1.44l-3.73-4.89v4.89h-1.67Z"/></g></g><g id="Line_835" data-name="Line 835" class="cls-10"><rect class="cls-9" x="313.67" y="400.18" width="1" height="19.25"/></g><g id="Line_836" data-name="Line 836" class="cls-10"><rect class="cls-9" x="319.2" y="400.18" width="1" height="7.09"/></g><g id="Line_837" data-name="Line 837" class="cls-10"><rect class="cls-9" x="326.12" y="400.18" width="1" height="7.09"/></g><g id="Line_838" data-name="Line 838" class="cls-10"><rect class="cls-9" x="333.04" y="400.18" width="1" height="7.09"/></g><g id="Line_839" data-name="Line 839" class="cls-10"><rect class="cls-9" x="339.97" y="400.18" width="1" height="7.09"/></g><g id="Line_840" data-name="Line 840" class="cls-10"><rect class="cls-9" x="346.89" y="400.18" width="1" height="7.09"/></g><g id="Line_841" data-name="Line 841" class="cls-10"><rect class="cls-9" x="353.81" y="400.18" width="1" height="7.09"/></g><g id="Line_842" data-name="Line 842" class="cls-10"><rect class="cls-9" x="360.73" y="400.18" width="1" height="7.09"/></g><g id="Line_843" data-name="Line 843" class="cls-10"><rect class="cls-9" x="367.65" y="400.18" width="1" height="7.09"/></g><g id="Line_844" data-name="Line 844" class="cls-10"><rect class="cls-9" x="374.57" y="400.18" width="1" height="7.09"/></g><g id="FEB" class="cls-8"><g class="cls-8"><path class="cls-9" d="M382.36,375.8h5.86v1.53h-4.17V379h3.67v1.53h-3.67v3h-1.69Z"/><path class="cls-9" d="M389.58,375.8h5.8v1.51h-4.12v1.56h3.63v1.51h-3.63V382h4.18v1.51h-5.85Z"/><path class="cls-9" d="M396.95,375.8h3.57a2.72,2.72,0,0,1,2,.68,1.78,1.78,0,0,1,.53,1.31v0a1.89,1.89,0,0,1-.08.58,1.82,1.82,0,0,1-.22.46,1.75,1.75,0,0,1-.32.36,2.14,2.14,0,0,1-.39.26,2.6,2.6,0,0,1,1.05.69,1.76,1.76,0,0,1,.38,1.21v0a2,2,0,0,1-.2.92,1.79,1.79,0,0,1-.58.66,2.71,2.71,0,0,1-.91.4,4.91,4.91,0,0,1-1.18.13h-3.66Zm3.21,3.11a1.77,1.77,0,0,0,.89-.19.67.67,0,0,0,.33-.62v0a.68.68,0,0,0-.29-.59,1.41,1.41,0,0,0-.82-.2H398.6v1.63Zm.45,3.1a1.63,1.63,0,0,0,.88-.2.7.7,0,0,0,.32-.63v0a.73.73,0,0,0-.3-.61,1.6,1.6,0,0,0-1-.23h-2V382Z"/></g></g><g id="Line_845" data-name="Line 845" class="cls-10"><rect class="cls-9" x="381.49" y="400.18" width="1" height="19.25"/></g><g id="Line_846" data-name="Line 846" class="cls-10"><rect class="cls-9" x="387.03" y="400.18" width="1" height="7.09"/></g><g id="Line_847" data-name="Line 847" class="cls-10"><rect class="cls-9" x="393.95" y="400.18" width="1" height="7.09"/></g><g id="Line_848" data-name="Line 848" class="cls-10"><rect class="cls-9" x="400.87" y="400.18" width="1" height="7.09"/></g><g id="Line_849" data-name="Line 849" class="cls-10"><rect class="cls-9" x="407.79" y="400.18" width="1" height="7.09"/></g><g id="Line_850" data-name="Line 850" class="cls-10"><rect class="cls-9" x="414.71" y="400.18" width="1" height="7.09"/></g><g id="Line_851" data-name="Line 851" class="cls-10"><rect class="cls-9" x="421.63" y="400.18" width="1" height="7.09"/></g><g id="Line_852" data-name="Line 852" class="cls-10"><rect class="cls-9" x="428.55" y="400.18" width="1" height="7.09"/></g><g id="Line_853" data-name="Line 853" class="cls-10"><rect class="cls-9" x="435.47" y="400.18" width="1" height="7.09"/></g><g id="Line_854" data-name="Line 854" class="cls-10"><rect class="cls-9" x="442.39" y="400.18" width="1" height="7.09"/></g><g id="MAR" class="cls-8"><g class="cls-8"><path class="cls-9" d="M449.38,375.8h1.83l2,3.26,2-3.26h1.83v7.7h-1.67v-5l-2.17,3.29h0L451,378.51v5h-1.67Z"/><path class="cls-9" d="M461.56,375.75h1.56l3.3,7.75h-1.77l-.7-1.73H460.7l-.7,1.73h-1.73Zm1.78,4.53-1-2.5-1,2.5Z"/><path class="cls-9" d="M467.61,375.8h3.52a3,3,0,0,1,2.24.78,2.38,2.38,0,0,1,.66,1.76v0a2.42,2.42,0,0,1-.46,1.52,2.65,2.65,0,0,1-1.19.86l1.88,2.75h-2L470.64,381h-1.33v2.46h-1.69Zm3.41,3.74a1.41,1.41,0,0,0,1-.3,1,1,0,0,0,.34-.79v0a1,1,0,0,0-.35-.83,1.56,1.56,0,0,0-1-.27h-1.68v2.21Z"/></g></g><g id="Line_855" data-name="Line 855" class="cls-10"><rect class="cls-9" x="449.31" y="400.18" width="1" height="19.25"/></g><g id="Line_856" data-name="Line 856" class="cls-10"><rect class="cls-9" x="454.85" y="400.18" width="1" height="7.09"/></g><g id="Line_857" data-name="Line 857" class="cls-10"><rect class="cls-9" x="461.77" y="400.18" width="1" height="7.09"/></g><g id="Line_858" data-name="Line 858" class="cls-10"><rect class="cls-9" x="468.69" y="400.18" width="1" height="7.09"/></g><g id="Line_859" data-name="Line 859" class="cls-10"><rect class="cls-9" x="475.61" y="400.18" width="1" height="7.09"/></g><g id="Line_860" data-name="Line 860" class="cls-10"><rect class="cls-9" x="482.53" y="400.18" width="1" height="7.09"/></g><g id="Line_861" data-name="Line 861" class="cls-10"><rect class="cls-9" x="489.45" y="400.18" width="1" height="7.09"/></g><g id="Line_862" data-name="Line 862" class="cls-10"><rect class="cls-9" x="496.38" y="400.18" width="1" height="7.09"/></g><g id="Line_863" data-name="Line 863" class="cls-10"><rect class="cls-9" x="503.3" y="400.18" width="1" height="7.09"/></g><g id="Line_864" data-name="Line 864" class="cls-10"><rect class="cls-9" x="510.22" y="400.18" width="1" height="7.09"/></g><g id="APR" class="cls-8"><g class="cls-8"><path class="cls-9" d="M520.92,375.75h1.56l3.3,7.75H524l-.7-1.73H520l-.7,1.73h-1.73Zm1.78,4.53-1-2.5-1,2.5Z"/><path class="cls-9" d="M527,375.8h3.15a3.71,3.71,0,0,1,1.24.19,2.65,2.65,0,0,1,.92.54,2.38,2.38,0,0,1,.58.84,2.78,2.78,0,0,1,.2,1.08v0a2.7,2.7,0,0,1-.24,1.18,2.41,2.41,0,0,1-.67.85,2.89,2.89,0,0,1-1,.51,4.21,4.21,0,0,1-1.22.17h-1.29v2.31H527Zm3,3.88a1.38,1.38,0,0,0,1-.33,1.1,1.1,0,0,0,.35-.83v0a1.05,1.05,0,0,0-.37-.87,1.56,1.56,0,0,0-1-.3h-1.31v2.35Z"/><path class="cls-9" d="M534.32,375.8h3.52a3,3,0,0,1,2.24.78,2.38,2.38,0,0,1,.66,1.76v0a2.41,2.41,0,0,1-.46,1.52,2.65,2.65,0,0,1-1.19.86L541,383.5h-2L537.34,381H536v2.46h-1.69Zm3.41,3.74a1.4,1.4,0,0,0,1-.3,1,1,0,0,0,.34-.79v0a1,1,0,0,0-.35-.83,1.56,1.56,0,0,0-1-.27H536v2.21Z"/></g></g><g id="Line_865" data-name="Line 865" class="cls-10"><rect class="cls-9" x="517.14" y="400.18" width="1" height="19.25"/></g><g id="Line_866" data-name="Line 866" class="cls-10"><rect class="cls-9" x="522.67" y="400.18" width="1" height="7.09"/></g><g id="Line_867" data-name="Line 867" class="cls-10"><rect class="cls-9" x="529.59" y="400.18" width="1" height="7.09"/></g><g id="Line_868" data-name="Line 868" class="cls-10"><rect class="cls-9" x="536.51" y="400.18" width="1" height="7.09"/></g><g id="Line_869" data-name="Line 869" class="cls-10"><rect class="cls-9" x="543.44" y="400.18" width="1" height="7.09"/></g><g id="Line_870" data-name="Line 870" class="cls-10"><rect class="cls-9" x="550.36" y="400.18" width="1" height="7.09"/></g><g id="Line_871" data-name="Line 871" class="cls-10"><rect class="cls-9" x="557.28" y="400.18" width="1" height="7.09"/></g><g id="Line_872" data-name="Line 872" class="cls-10"><rect class="cls-9" x="564.2" y="400.18" width="1" height="7.09"/></g><g id="Line_873" data-name="Line 873" class="cls-10"><rect class="cls-9" x="571.12" y="400.18" width="1" height="7.09"/></g><g id="Line_874" data-name="Line 874" class="cls-10"><rect class="cls-9" x="578.04" y="400.18" width="1" height="7.09"/></g><g id="MAY" class="cls-8"><g class="cls-8"><path class="cls-9" d="M583.69,375.8h1.83l2,3.26,2-3.26h1.83v7.7h-1.67v-5l-2.17,3.29h0l-2.15-3.26v5h-1.67Z"/><path class="cls-9" d="M595.88,375.75h1.56l3.3,7.75H599l-.7-1.73H595l-.7,1.73h-1.73Zm1.78,4.53-1-2.5-1,2.5Z"/><path class="cls-9" d="M604.09,380.46l-3-4.66h2l1.84,3.09,1.87-3.09h1.93l-3,4.63v3.07h-1.7Z"/></g></g><g id="Line_875" data-name="Line 875" class="cls-10"><rect class="cls-9" x="584.96" y="400.18" width="1" height="19.25"/></g><g id="Line_876" data-name="Line 876" class="cls-10"><rect class="cls-9" x="590.5" y="400.18" width="1" height="7.09"/></g><g id="Line_877" data-name="Line 877" class="cls-10"><rect class="cls-9" x="597.42" y="400.18" width="1" height="7.09"/></g><g id="Line_878" data-name="Line 878" class="cls-10"><rect class="cls-9" x="604.34" y="400.18" width="1" height="7.09"/></g><g id="Line_879" data-name="Line 879" class="cls-10"><rect class="cls-9" x="611.26" y="400.18" width="1" height="7.09"/></g><g id="Line_880" data-name="Line 880" class="cls-10"><rect class="cls-9" x="618.18" y="400.18" width="1" height="7.09"/></g><g id="Line_881" data-name="Line 881" class="cls-10"><rect class="cls-9" x="625.1" y="400.18" width="1" height="7.09"/></g><g id="Line_882" data-name="Line 882" class="cls-10"><rect class="cls-9" x="632.02" y="400.18" width="1" height="7.09"/></g><g id="Line_883" data-name="Line 883" class="cls-10"><rect class="cls-9" x="638.94" y="400.18" width="1" height="7.09"/></g><g id="Line_884" data-name="Line 884" class="cls-10"><rect class="cls-9" x="645.86" y="400.18" width="1" height="7.09"/></g><g id="JUN" class="cls-8"><g class="cls-8"><path class="cls-9" d="M656.06,383.61a3.06,3.06,0,0,1-1.51-.34,3.54,3.54,0,0,1-1-.81l1.07-1.19a3,3,0,0,0,.67.57,1.4,1.4,0,0,0,.74.2,1,1,0,0,0,.76-.3,1.42,1.42,0,0,0,.28-1v-5h1.74v5a3.45,3.45,0,0,1-.19,1.2,2.35,2.35,0,0,1-.54.86,2.27,2.27,0,0,1-.86.53A3.38,3.38,0,0,1,656.06,383.61Z"/><path class="cls-9" d="M663.73,383.62a3.05,3.05,0,0,1-3.33-3.42v-4.4h1.69v4.36a2,2,0,0,0,.44,1.42,1.57,1.57,0,0,0,1.22.48,1.6,1.6,0,0,0,1.22-.46,1.94,1.94,0,0,0,.44-1.39V375.8h1.7v4.34a4.48,4.48,0,0,1-.24,1.53,2.89,2.89,0,0,1-.68,1.08,2.77,2.77,0,0,1-1.07.65A4.28,4.28,0,0,1,663.73,383.62Z"/><path class="cls-9" d="M668.84,375.8h1.56l3.61,4.74V375.8h1.67v7.7h-1.44l-3.73-4.89v4.89h-1.67Z"/></g></g><g id="Line_885" data-name="Line 885" class="cls-10"><rect class="cls-9" x="652.78" y="400.18" width="1" height="19.25"/></g><g id="Line_886" data-name="Line 886" class="cls-10"><rect class="cls-9" x="658.32" y="400.18" width="1" height="7.09"/></g><g id="Line_887" data-name="Line 887" class="cls-10"><rect class="cls-9" x="665.24" y="400.18" width="1" height="7.09"/></g><g id="Line_888" data-name="Line 888" class="cls-10"><rect class="cls-9" x="672.16" y="400.18" width="1" height="7.09"/></g><g id="Line_889" data-name="Line 889" class="cls-10"><rect class="cls-9" x="679.08" y="400.18" width="1" height="7.09"/></g><g id="Line_890" data-name="Line 890" class="cls-10"><rect class="cls-9" x="686" y="400.18" width="1" height="7.09"/></g><g id="Line_891" data-name="Line 891" class="cls-10"><rect class="cls-9" x="692.92" y="400.18" width="1" height="7.09"/></g><g id="Line_892" data-name="Line 892" class="cls-10"><rect class="cls-9" x="699.84" y="400.18" width="1" height="7.09"/></g><g id="Line_893" data-name="Line 893" class="cls-10"><rect class="cls-9" x="706.76" y="400.18" width="1" height="7.09"/></g><g id="Line_894" data-name="Line 894" class="cls-10"><rect class="cls-9" x="713.69" y="400.18" width="1" height="7.09"/></g><g id="JUL" class="cls-8"><g class="cls-8"><path class="cls-9" d="M723.83,383.61a3.06,3.06,0,0,1-1.51-.34,3.54,3.54,0,0,1-1-.81l1.07-1.19a3,3,0,0,0,.67.57,1.4,1.4,0,0,0,.74.2,1,1,0,0,0,.76-.3,1.42,1.42,0,0,0,.28-1v-5h1.74v5a3.45,3.45,0,0,1-.19,1.2,2.35,2.35,0,0,1-.54.86,2.27,2.27,0,0,1-.86.53A3.38,3.38,0,0,1,723.83,383.61Z"/><path class="cls-9" d="M731.5,383.62a3.05,3.05,0,0,1-3.33-3.42v-4.4h1.69v4.36a2,2,0,0,0,.44,1.42,1.57,1.57,0,0,0,1.22.48,1.6,1.6,0,0,0,1.22-.46,1.94,1.94,0,0,0,.44-1.39V375.8h1.7v4.34a4.48,4.48,0,0,1-.24,1.53,2.89,2.89,0,0,1-.68,1.08,2.77,2.77,0,0,1-1.07.65A4.28,4.28,0,0,1,731.5,383.62Z"/><path class="cls-9" d="M736.6,375.8h1.69V382h3.84v1.53H736.6Z"/></g></g><g id="Line_895" data-name="Line 895" class="cls-10"><rect class="cls-9" x="720.61" y="400.18" width="1" height="19.25"/></g><g id="Line_896" data-name="Line 896" class="cls-10"><rect class="cls-9" x="726.14" y="400.18" width="1" height="7.09"/></g><g id="Line_897" data-name="Line 897" class="cls-10"><rect class="cls-9" x="733.06" y="400.18" width="1" height="7.09"/></g><g id="Line_898" data-name="Line 898" class="cls-10"><rect class="cls-9" x="739.99" y="400.18" width="1" height="7.09"/></g><g id="Line_899" data-name="Line 899" class="cls-10"><rect class="cls-9" x="746.91" y="400.18" width="1" height="7.09"/></g><g id="Line_900" data-name="Line 900" class="cls-10"><rect class="cls-9" x="753.83" y="400.18" width="1" height="7.09"/></g><g id="Line_901" data-name="Line 901" class="cls-10"><rect class="cls-9" x="760.75" y="400.18" width="1" height="7.09"/></g><g id="Line_902" data-name="Line 902" class="cls-10"><rect class="cls-9" x="767.67" y="400.18" width="1" height="7.09"/></g><g id="Line_903" data-name="Line 903" class="cls-10"><rect class="cls-9" x="774.59" y="400.18" width="1" height="7.09"/></g><g id="Line_904" data-name="Line 904" class="cls-10"><rect class="cls-9" x="781.51" y="400.18" width="1" height="7.09"/></g><g id="AUG" class="cls-8"><g class="cls-8"><path class="cls-9" d="M791.55,375.75h1.56l3.3,7.75h-1.77l-.7-1.73h-3.26l-.7,1.73h-1.73Zm1.78,4.53-1-2.5-1,2.5Z"/><path class="cls-9" d="M800.81,383.62a3.05,3.05,0,0,1-3.33-3.42v-4.4h1.69v4.36a2,2,0,0,0,.44,1.42,1.57,1.57,0,0,0,1.22.48,1.6,1.6,0,0,0,1.22-.46,1.94,1.94,0,0,0,.44-1.39V375.8h1.69v4.34a4.48,4.48,0,0,1-.24,1.53,2.9,2.9,0,0,1-.68,1.08,2.78,2.78,0,0,1-1.07.65A4.28,4.28,0,0,1,800.81,383.62Z"/><path class="cls-9" d="M809.63,383.63a4.39,4.39,0,0,1-1.64-.3,3.79,3.79,0,0,1-1.28-.83,3.71,3.71,0,0,1-.83-1.25,4.14,4.14,0,0,1-.3-1.58v0A3.94,3.94,0,0,1,808,376a4.09,4.09,0,0,1,1.62-.31,5.65,5.65,0,0,1,.94.07,4.52,4.52,0,0,1,.79.2,3.63,3.63,0,0,1,.68.33,5.05,5.05,0,0,1,.62.45L811.57,378a4.45,4.45,0,0,0-.44-.33,2.93,2.93,0,0,0-.46-.24,2.7,2.7,0,0,0-.51-.15,3.06,3.06,0,0,0-.61-.05,2,2,0,0,0-.86.19,2.33,2.33,0,0,0-.7.52,2.38,2.38,0,0,0-.47.76,2.52,2.52,0,0,0-.17.93v0a2.69,2.69,0,0,0,.17,1,2.32,2.32,0,0,0,.48.78,2.19,2.19,0,0,0,.74.51,2.34,2.34,0,0,0,.94.18,2.67,2.67,0,0,0,1.6-.46v-1.11h-1.71v-1.46h3.34v3.34a5.65,5.65,0,0,1-1.41.86A4.65,4.65,0,0,1,809.63,383.63Z"/></g></g><g id="Line_905" data-name="Line 905" class="cls-10"><rect class="cls-9" x="788.43" y="400.18" width="1" height="19.25"/></g><g id="Line_906" data-name="Line 906" class="cls-10"><rect class="cls-9" x="793.97" y="400.18" width="1" height="7.09"/></g><g id="Line_907" data-name="Line 907" class="cls-10"><rect class="cls-9" x="800.89" y="400.18" width="1" height="7.09"/></g><g id="Line_908" data-name="Line 908" class="cls-10"><rect class="cls-9" x="806.83" y="400.18" width="1" height="7.09"/></g><g id="Line_909" data-name="Line 909" class="cls-10"><rect class="cls-9" x="813.75" y="400.18" width="1" height="7.09"/></g><g id="Line_910" data-name="Line 910" class="cls-10"><rect class="cls-9" x="820.67" y="400.18" width="1" height="7.09"/></g><g id="Line_911" data-name="Line 911" class="cls-10"><rect class="cls-9" x="827.59" y="400.18" width="1" height="7.09"/></g><g id="Line_912" data-name="Line 912" class="cls-10"><rect class="cls-9" x="834.51" y="400.18" width="1" height="7.09"/></g><g id="Line_913" data-name="Line 913" class="cls-10"><rect class="cls-9" x="841.43" y="400.18" width="1" height="7.09"/></g><g id="Line_914" data-name="Line 914" class="cls-10"><rect class="cls-9" x="848.35" y="400.18" width="1" height="7.09"/></g><g id="SEP" class="cls-8"><g class="cls-8"><path class="cls-9" d="M859.28,383.61a5.11,5.11,0,0,1-1.73-.3,4.58,4.58,0,0,1-1.54-.93l1-1.2a5,5,0,0,0,1.08.68,2.9,2.9,0,0,0,1.21.25,1.48,1.48,0,0,0,.82-.19.61.61,0,0,0,.29-.53v0a.68.68,0,0,0-.06-.29.62.62,0,0,0-.23-.24,2.39,2.39,0,0,0-.47-.22c-.2-.07-.46-.15-.79-.23a9.49,9.49,0,0,1-1.06-.32,3,3,0,0,1-.81-.43,1.75,1.75,0,0,1-.51-.64,2.22,2.22,0,0,1-.18-1v0a2.24,2.24,0,0,1,.2-1,2.16,2.16,0,0,1,.55-.73,2.47,2.47,0,0,1,.85-.47,3.4,3.4,0,0,1,1.09-.17,4.59,4.59,0,0,1,1.56.25,4.49,4.49,0,0,1,1.3.73l-.88,1.28a5.55,5.55,0,0,0-1-.56,2.59,2.59,0,0,0-1-.2,1.2,1.2,0,0,0-.74.19.59.59,0,0,0-.25.48v0a.7.7,0,0,0,.07.32.66.66,0,0,0,.26.25,2.47,2.47,0,0,0,.51.21l.82.23a8,8,0,0,1,1,.35,2.92,2.92,0,0,1,.77.46,1.76,1.76,0,0,1,.47.63,2.15,2.15,0,0,1,.16.87v0a2.38,2.38,0,0,1-.21,1,2.07,2.07,0,0,1-.58.75,2.59,2.59,0,0,1-.89.46A3.85,3.85,0,0,1,859.28,383.61Z"/><path class="cls-9" d="M863.57,375.8h5.8v1.51h-4.12v1.56h3.63v1.51h-3.63V382h4.18v1.51h-5.85Z"/><path class="cls-9" d="M870.94,375.8h3.15a3.71,3.71,0,0,1,1.24.19,2.64,2.64,0,0,1,.92.54,2.38,2.38,0,0,1,.58.84,2.79,2.79,0,0,1,.2,1.08v0a2.69,2.69,0,0,1-.24,1.18,2.38,2.38,0,0,1-.67.85,2.88,2.88,0,0,1-1,.51,4.22,4.22,0,0,1-1.22.17h-1.29v2.31h-1.69Zm3,3.88a1.38,1.38,0,0,0,1-.33,1.1,1.1,0,0,0,.35-.83v0a1.05,1.05,0,0,0-.37-.87,1.56,1.56,0,0,0-1-.3h-1.31v2.35Z"/></g></g><g id="Line_915" data-name="Line 915" class="cls-10"><rect class="cls-9" x="855.28" y="400.18" width="1" height="19.25"/></g><g id="Line_916" data-name="Line 916" class="cls-10"><rect class="cls-9" x="862.2" y="400.18" width="1" height="7.09"/></g><g id="Line_917" data-name="Line 917" class="cls-10"><rect class="cls-9" x="869.12" y="400.18" width="1" height="7.09"/></g><g id="Line_918" data-name="Line 918" class="cls-10"><rect class="cls-9" x="876.04" y="400.18" width="1" height="7.09"/></g><g id="Line_919" data-name="Line 919" class="cls-10"><rect class="cls-9" x="882.96" y="400.18" width="1" height="7.09"/></g><g id="Line_920" data-name="Line 920" class="cls-10"><rect class="cls-9" x="889.88" y="400.18" width="1" height="7.09"/></g><g id="Line_921" data-name="Line 921" class="cls-10"><rect class="cls-9" x="896.8" y="400.18" width="1" height="7.09"/></g><g id="Line_922" data-name="Line 922" class="cls-10"><rect class="cls-9" x="903.72" y="400.18" width="1" height="7.09"/></g><g class="cls-11"><g id="Mask_Group_3" data-name="Mask Group 3"><g id="Path_78" data-name="Path 78"><path class="cls-4" d="M913.71,571.53H90.44l0-1.52,3.7-263.3.25-.37c.15-.22,15.18-22.29,42.7-45.19,25.41-21.15,67-47.4,120.83-52.33,38.13-3.5,74.11,16.33,112.19,37.32,65.81,36.27,140.4,77.37,247.75,8.61C786.13,147,910.53,107.61,911.76,107.23l1.95-.61Zm-820.23-3H910.71V110.72c-16.44,5.44-134.79,46.37-291.21,146.56C510.64,327,435.23,285.44,368.68,248.77,331,228,295.43,208.4,258.21,211.81c-53,4.86-94,30.73-119.11,51.58-25.3,21-39.91,41.33-42,44.26Z"/></g></g></g><g id="Path_79" data-name="Path 79" class="cls-12"><path class="cls-9" d="M650.71,314.65c-43.14,0-84.83-10.82-130.34-22.63-17.71-4.59-36-9.35-55.25-13.68-77.69-17.53-241.35-8.5-312.72,17.25-12.14,4.38-25.51,9.13-34.36,12.27-4.59,1.63-8.22,2.92-8.52,3l-.55-1.38h-1.53c0-1.07.06-1.09,3.33-2.26L117,305c8.84-3.14,22.21-7.89,34.34-12.27,71.76-25.89,236.3-35,314.39-17.35,19.28,4.35,37.61,9.1,55.34,13.71,73.85,19.16,137.63,35.71,213.6,7.18,75.68-28.42,129.44-9.06,158.33,1.34,7.35,2.65,13.15,4.74,17.15,5.26l-.39,3c-4.33-.57-10.26-2.7-17.78-5.41-28.52-10.27-81.6-29.39-156.25-1.35A237.54,237.54,0,0,1,650.71,314.65Z"/></g><g id="Group_7114" data-name="Group 7114" class="cls-13"><g id="NON-BRAND_KEYWORDS" data-name="NON-BRAND KEYWORDS" class="cls-8"><g class="cls-8"><path class="cls-14" d="M98.62,10.69h2l4.59,6v-6h2.13V20.5H105.5l-4.75-6.23V20.5H98.62Z"/><path class="cls-14" d="M108.9,15.63v0a5.21,5.21,0,0,1,10.42,0v0a5.21,5.21,0,0,1-10.42,0Zm8.17,0v0a3,3,0,0,0-3-3.08,2.93,2.93,0,0,0-2.94,3.05v0a3,3,0,0,0,3,3.08A2.93,2.93,0,0,0,117.06,15.63Z"/><path class="cls-14" d="M120.88,10.69h2l4.59,6v-6h2.13V20.5h-1.83L123,14.27V20.5h-2.13Z"/><path class="cls-14" d="M131.11,15.13h4.31v2h-4.31Z"/><path class="cls-14" d="M137,10.69h4.55a3.54,3.54,0,0,1,2.56.87,2.25,2.25,0,0,1,.67,1.67v0a2.28,2.28,0,0,1-1.29,2.12,2.4,2.4,0,0,1,1.83,2.41v0c0,1.79-1.46,2.69-3.67,2.69H137Zm4.09,4c1,0,1.55-.31,1.55-1v0c0-.64-.5-1-1.42-1h-2.13v2.07Zm.57,4c1,0,1.53-.34,1.53-1.07v0c0-.66-.49-1.06-1.6-1.06h-2.49v2.16Z"/><path class="cls-14" d="M146.71,10.69h4.48a3.91,3.91,0,0,1,2.86,1,3.08,3.08,0,0,1,.84,2.24v0a3,3,0,0,1-2.1,3l2.4,3.5h-2.52l-2.1-3.14h-1.69V20.5h-2.16Zm4.34,4.76c1.05,0,1.65-.56,1.65-1.39v0c0-.92-.64-1.4-1.69-1.4h-2.14v2.82Z"/><path class="cls-14" d="M159.84,10.63h2L166,20.5h-2.26l-.9-2.2h-4.15l-.9,2.2h-2.2Zm2.27,5.77-1.3-3.18-1.3,3.18Z"/><path class="cls-14" d="M167.19,10.69h2l4.59,6v-6h2.13V20.5h-1.83l-4.75-6.23V20.5h-2.13Z"/><path class="cls-14" d="M177.9,10.69h3.82a4.89,4.89,0,0,1,5.21,4.88v0a4.91,4.91,0,0,1-5.21,4.9H177.9Zm3.82,7.86a2.79,2.79,0,0,0,3-2.93v0a2.82,2.82,0,0,0-3-3h-1.67v5.91Z"/><path class="cls-14" d="M192.35,10.69h2.16V15l4-4.29h2.61l-4,4.16,4.17,5.65h-2.59l-3-4.17-1.13,1.18v3h-2.16Z"/><path class="cls-14" d="M202.22,10.69h7.4v1.92h-5.25v2H209v1.92h-4.62v2.06h5.32V20.5h-7.47Z"/><path class="cls-14" d="M214,16.63l-3.77-5.94h2.52l2.34,3.94,2.38-3.94h2.45l-3.77,5.9V20.5H214Z"/><path class="cls-14" d="M219.89,10.69h2.31l2,6.64,2.2-6.67h1.85l2.2,6.67,2-6.64h2.26l-3.35,9.88h-1.88l-2.21-6.42-2.21,6.42h-1.88Z"/><path class="cls-14" d="M235,15.63v0a5.21,5.21,0,0,1,10.42,0v0a5.21,5.21,0,0,1-10.42,0Zm8.17,0v0a3,3,0,0,0-3-3.08,2.93,2.93,0,0,0-2.94,3.05v0a3,3,0,0,0,3,3.08A2.93,2.93,0,0,0,243.17,15.63Z"/><path class="cls-14" d="M247,10.69h4.48a3.91,3.91,0,0,1,2.86,1,3.08,3.08,0,0,1,.84,2.24v0a3,3,0,0,1-2.1,3l2.4,3.5h-2.52l-2.1-3.14h-1.69V20.5H247Zm4.34,4.76c1.05,0,1.65-.56,1.65-1.39v0c0-.92-.64-1.4-1.69-1.4h-2.14v2.82Z"/><path class="cls-14" d="M256.76,10.69h3.82a4.89,4.89,0,0,1,5.21,4.88v0a4.91,4.91,0,0,1-5.21,4.9h-3.82Zm3.82,7.86a2.79,2.79,0,0,0,3-2.93v0a2.82,2.82,0,0,0-3-3h-1.67v5.91Z"/><path class="cls-14" d="M266.55,19.07l1.27-1.53a4.5,4.5,0,0,0,2.93,1.19c.88,0,1.41-.35,1.41-.92v0c0-.55-.34-.83-2-1.25-2-.5-3.25-1.05-3.25-3v0c0-1.78,1.43-3,3.43-3A5.67,5.67,0,0,1,274,11.8l-1.12,1.62a4.6,4.6,0,0,0-2.55-1c-.83,0-1.26.38-1.26.85v0c0,.64.42.85,2.12,1.29,2,.52,3.11,1.23,3.11,2.94v0c0,1.95-1.48,3-3.6,3A6.24,6.24,0,0,1,266.55,19.07Z"/></g></g><g id="Ellipse_4800" data-name="Ellipse 4800"><ellipse class="cls-15" cx="72.89" cy="17" rx="7.34" ry="7.5"/></g></g><g id="Group_7113" data-name="Group 7113" class="cls-13"><g id="BRAND_KEYWORDS" data-name="BRAND KEYWORDS" class="cls-8"><g class="cls-8"><path class="cls-14" d="M432.39,10.69h4.55a3.54,3.54,0,0,1,2.56.87,2.25,2.25,0,0,1,.67,1.67v0a2.28,2.28,0,0,1-1.29,2.12,2.4,2.4,0,0,1,1.83,2.41v0c0,1.79-1.46,2.69-3.67,2.69h-4.66Zm4.09,4c1,0,1.56-.31,1.56-1v0c0-.64-.5-1-1.42-1h-2.13v2.07Zm.57,4c1,0,1.53-.34,1.53-1.07v0c0-.66-.49-1.06-1.6-1.06h-2.49v2.16Z"/><path class="cls-14" d="M442.15,10.69h4.48a3.91,3.91,0,0,1,2.86,1,3.08,3.08,0,0,1,.84,2.24v0a3,3,0,0,1-2.1,3l2.4,3.5H448.1L446,17.36h-1.69V20.5h-2.16Zm4.34,4.76c1.05,0,1.65-.56,1.65-1.39v0c0-.92-.64-1.4-1.69-1.4h-2.14v2.82Z"/><path class="cls-14" d="M455.28,10.63h2l4.2,9.88h-2.26l-.9-2.2h-4.15l-.9,2.2h-2.2Zm2.27,5.77-1.3-3.18-1.3,3.18Z"/><path class="cls-14" d="M462.63,10.69h2l4.59,6v-6h2.13V20.5h-1.83l-4.75-6.23V20.5h-2.13Z"/><path class="cls-14" d="M473.34,10.69h3.82a4.89,4.89,0,0,1,5.21,4.88v0a4.91,4.91,0,0,1-5.21,4.9h-3.82Zm3.82,7.86a2.79,2.79,0,0,0,3-2.93v0a2.82,2.82,0,0,0-3-3H475.5v5.91Z"/><path class="cls-14" d="M487.79,10.69h2.16V15l4-4.29h2.61l-4,4.16,4.17,5.65h-2.59l-3-4.17-1.13,1.18v3h-2.16Z"/><path class="cls-14" d="M497.66,10.69h7.4v1.92H499.8v2h4.62v1.92H499.8v2.06h5.32V20.5h-7.47Z"/><path class="cls-14" d="M509.45,16.63l-3.77-5.94h2.52l2.34,3.94,2.38-3.94h2.45l-3.77,5.9V20.5h-2.16Z"/><path class="cls-14" d="M515.33,10.69h2.31l2,6.64,2.2-6.67h1.85l2.2,6.67,2-6.64h2.26l-3.35,9.88H525l-2.21-6.42-2.21,6.42h-1.88Z"/><path class="cls-14" d="M530.45,15.63v0a5.21,5.21,0,0,1,10.42,0v0a5.21,5.21,0,0,1-10.42,0Zm8.17,0v0a3,3,0,0,0-3-3.08,2.93,2.93,0,0,0-2.94,3.05v0a3,3,0,0,0,3,3.08A2.93,2.93,0,0,0,538.61,15.63Z"/><path class="cls-14" d="M542.43,10.69h4.48a3.91,3.91,0,0,1,2.86,1,3.08,3.08,0,0,1,.84,2.24v0a3,3,0,0,1-2.1,3l2.4,3.5h-2.52l-2.1-3.14h-1.7V20.5h-2.16Zm4.34,4.76c1,0,1.65-.56,1.65-1.39v0c0-.92-.64-1.4-1.7-1.4h-2.14v2.82Z"/><path class="cls-14" d="M552.2,10.69H556a4.89,4.89,0,0,1,5.21,4.88v0A4.91,4.91,0,0,1,556,20.5H552.2ZM556,18.55a2.79,2.79,0,0,0,3-2.93v0a2.82,2.82,0,0,0-3-3h-1.67v5.91Z"/><path class="cls-14" d="M562,19.07l1.27-1.53a4.5,4.5,0,0,0,2.93,1.19c.88,0,1.42-.35,1.42-.92v0c0-.55-.34-.83-2-1.25-2-.5-3.25-1.05-3.25-3v0c0-1.78,1.43-3,3.43-3a5.67,5.67,0,0,1,3.64,1.25l-1.12,1.62a4.61,4.61,0,0,0-2.55-1c-.83,0-1.26.38-1.26.85v0c0,.64.42.85,2.12,1.29,2,.52,3.11,1.23,3.11,2.94v0c0,1.95-1.48,3-3.6,3A6.24,6.24,0,0,1,562,19.07Z"/></g></g><g id="Ellipse_4801" data-name="Ellipse 4801"><ellipse class="cls-14" cx="406.66" cy="17" rx="7.34" ry="7.5"/></g></g><g id="Group_7112" data-name="Group 7112"><g id="TOTAL_ORGANIC_TRAFFIC" data-name="TOTAL ORGANIC TRAFFIC" class="cls-8"><g class="cls-8"><path class="cls-14" d="M728.35,12.68h-3v-2h8.12v2h-3V20.5h-2.16Z"/><path class="cls-14" d="M733.94,15.63v0a5.21,5.21,0,0,1,10.42,0v0a5.21,5.21,0,0,1-10.42,0Zm8.17,0v0a3,3,0,0,0-3-3.08,2.93,2.93,0,0,0-2.94,3.05v0a3,3,0,0,0,3,3.08A2.93,2.93,0,0,0,742.11,15.63Z"/><path class="cls-14" d="M747.79,12.68h-3v-2h8.12v2h-3V20.5h-2.16Z"/><path class="cls-14" d="M756.33,10.63h2l4.2,9.88h-2.25l-.9-2.2h-4.15l-.9,2.2h-2.2Zm2.27,5.77-1.3-3.18L756,16.4Z"/><path class="cls-14" d="M763.67,10.69h2.16v7.84h4.89v2h-7Z"/><path class="cls-14" d="M775.41,15.63v0a5.21,5.21,0,0,1,10.42,0v0a5.21,5.21,0,0,1-10.42,0Zm8.17,0v0a3,3,0,0,0-3-3.08,2.93,2.93,0,0,0-2.94,3.05v0a3,3,0,0,0,3,3.08A2.93,2.93,0,0,0,783.57,15.63Z"/><path class="cls-14" d="M787.39,10.69h4.48a3.91,3.91,0,0,1,2.86,1,3.07,3.07,0,0,1,.84,2.24v0a3,3,0,0,1-2.1,3l2.4,3.5h-2.52l-2.1-3.14h-1.69V20.5h-2.16Zm4.34,4.76c1.05,0,1.65-.56,1.65-1.39v0c0-.92-.64-1.4-1.69-1.4h-2.14v2.82Z"/><path class="cls-14" d="M796.73,15.63v0a5,5,0,0,1,5.14-5.07,5.38,5.38,0,0,1,3.85,1.34l-1.36,1.64a3.61,3.61,0,0,0-2.56-1A3,3,0,0,0,799,15.57v0a2.94,2.94,0,0,0,3,3.11,3.45,3.45,0,0,0,2-.59v-1.4h-2.17V14.85h4.26v4.26a6.37,6.37,0,0,1-4.19,1.55A4.91,4.91,0,0,1,796.73,15.63Z"/><path class="cls-14" d="M811.15,10.63h2l4.2,9.88h-2.26l-.9-2.2H810l-.9,2.2h-2.2Zm2.27,5.77-1.3-3.18-1.3,3.18Z"/><path class="cls-14" d="M818.5,10.69h2l4.6,6v-6h2.13V20.5h-1.84l-4.75-6.23V20.5H818.5Z"/><path class="cls-14" d="M829.31,10.69h2.16V20.5h-2.16Z"/><path class="cls-14" d="M833.13,15.63v0a5,5,0,0,1,5.11-5.07A5.06,5.06,0,0,1,842.11,12l-1.37,1.58a3.62,3.62,0,0,0-2.51-1.11,2.91,2.91,0,0,0-2.84,3.05v0a2.91,2.91,0,0,0,2.84,3.08,3.54,3.54,0,0,0,2.58-1.15l1.37,1.39a5,5,0,0,1-4,1.75A5,5,0,0,1,833.13,15.63Z"/><path class="cls-14" d="M849.68,12.68h-3v-2h8.13v2h-3V20.5h-2.16Z"/><path class="cls-14" d="M856.12,10.69h4.48a3.91,3.91,0,0,1,2.86,1,3.07,3.07,0,0,1,.84,2.24v0a3,3,0,0,1-2.1,3l2.39,3.5h-2.52L860,17.36h-1.69V20.5h-2.16Zm4.34,4.76c1,0,1.65-.56,1.65-1.39v0c0-.92-.64-1.4-1.7-1.4h-2.14v2.82Z"/><path class="cls-14" d="M869.25,10.63h2l4.2,9.88h-2.26l-.9-2.2h-4.15l-.9,2.2H865Zm2.27,5.77-1.3-3.18-1.3,3.18Z"/><path class="cls-14" d="M876.6,10.69h7.47v2h-5.31v2.09h4.68v2h-4.68v3.8H876.6Z"/><path class="cls-14" d="M885.43,10.69h7.47v2h-5.31v2.09h4.68v2h-4.68v3.8h-2.16Z"/><path class="cls-14" d="M894.36,10.69h2.16V20.5h-2.16Z"/><path class="cls-14" d="M898.18,15.63v0a5,5,0,0,1,5.11-5.07A5.06,5.06,0,0,1,907.16,12l-1.37,1.58a3.62,3.62,0,0,0-2.51-1.11,2.91,2.91,0,0,0-2.84,3.05v0a2.91,2.91,0,0,0,2.84,3.08,3.54,3.54,0,0,0,2.58-1.15l1.37,1.39a5,5,0,0,1-4,1.75A5,5,0,0,1,898.18,15.63Z"/></g></g><g id="Ellipse_4802" data-name="Ellipse 4802"><ellipse class="cls-4" cx="700.34" cy="17" rx="7.34" ry="7.5"/></g></g><g id="Line_4457" data-name="Line 4457" class="cls-10"><rect class="cls-9" x="909.5" y="400.18" width="1" height="19.25"/></g><g id="Line_4459" data-name="Line 4459"><rect class="cls-16" x="319.5" width="1" height="30"/></g><g id="Line_4460" data-name="Line 4460"><rect class="cls-16" x="649.5" width="1" height="30"/></g><g id="Line_4461" data-name="Line 4461"><line class="cls-1" y1="49.5" x2="970" y2="49.5"/></g><g id="Vestas_Vind_ApS" data-name="Vestas Vind ApS" class="cls-8"><g class="cls-8"><path class="cls-14" d="M564.29,75.1h2l2.2,5.91,2.2-5.91h2l-3.39,8.46h-1.63Z"/><path class="cls-14" d="M572.66,80.32v0A3.2,3.2,0,0,1,575.84,77C578,77,579,78.62,579,80.44c0,.14,0,.31,0,.48h-4.47A1.49,1.49,0,0,0,576,82.18a2.11,2.11,0,0,0,1.56-.66l1,.92a3.4,3.4,0,0,1-6-2.12Zm4.53-.54a1.38,1.38,0,0,0-1.36-1.37,1.43,1.43,0,0,0-1.39,1.37Z"/><path class="cls-14" d="M579.83,82.65l.78-1.2a3.63,3.63,0,0,0,2,.77c.53,0,.77-.19.77-.48v0c0-.4-.62-.53-1.33-.74-.9-.26-1.92-.68-1.92-1.93v0a2.1,2.1,0,0,1,2.35-2,4.45,4.45,0,0,1,2.4.74l-.7,1.26a3.8,3.8,0,0,0-1.74-.6c-.44,0-.67.19-.67.44v0c0,.36.61.53,1.31.77.9.3,1.94.73,1.94,1.91v0c0,1.43-1.07,2.08-2.46,2.08A4.5,4.5,0,0,1,579.83,82.65Z"/><path class="cls-14" d="M586.54,81.68v-3h-.77V77.07h.77V75.43h1.82v1.64h1.51v1.56h-1.51v2.75c0,.42.18.62.59.62a1.86,1.86,0,0,0,.9-.23v1.46a2.69,2.69,0,0,1-1.44.37C587.29,83.61,586.54,83.16,586.54,81.68Z"/><path class="cls-14" d="M590.83,81.65v0c0-1.4,1.07-2.05,2.59-2.05a4.58,4.58,0,0,1,1.57.26v-.11c0-.76-.47-1.18-1.38-1.18a4.73,4.73,0,0,0-1.78.35l-.46-1.39a5.67,5.67,0,0,1,2.5-.52,3,3,0,0,1,2.17.72,2.8,2.8,0,0,1,.7,2.05V83.5H595v-.7a2.47,2.47,0,0,1-1.94.82A2,2,0,0,1,590.83,81.65Zm4.19-.42v-.32a2.84,2.84,0,0,0-1.16-.24c-.78,0-1.26.31-1.26.89v0c0,.49.41.78,1,.78C594.44,82.36,595,81.89,595,81.23Z"/><path class="cls-14" d="M597.82,82.65l.78-1.2a3.63,3.63,0,0,0,2,.77c.53,0,.77-.19.77-.48v0c0-.4-.62-.53-1.33-.74-.9-.26-1.92-.68-1.92-1.93v0a2.1,2.1,0,0,1,2.35-2,4.45,4.45,0,0,1,2.4.74l-.7,1.26a3.81,3.81,0,0,0-1.74-.6c-.44,0-.67.19-.67.44v0c0,.36.61.53,1.31.77.9.3,1.94.73,1.94,1.91v0c0,1.43-1.07,2.08-2.46,2.08A4.5,4.5,0,0,1,597.82,82.65Z"/><path class="cls-14" d="M607.42,75.1h2L611.65,81l2.19-5.91h2l-3.39,8.46h-1.63Z"/><path class="cls-14" d="M616.74,74.75h1.92v1.62h-1.92Zm0,2.33h1.82V83.5h-1.82Z"/><path class="cls-14" d="M620.33,77.07h1.82V78A2.27,2.27,0,0,1,624,77a2.11,2.11,0,0,1,2.18,2.39V83.5h-1.82V79.91c0-.86-.41-1.31-1.1-1.31s-1.14.44-1.14,1.31V83.5h-1.82Z"/><path class="cls-14" d="M627.52,80.3v0A3,3,0,0,1,630.44,77a2.47,2.47,0,0,1,2,1V74.75h1.82V83.5h-1.82v-.92a2.36,2.36,0,0,1-2,1A3,3,0,0,1,627.52,80.3Zm5,0v0a1.58,1.58,0,1,0-3.13,0v0a1.58,1.58,0,1,0,3.13,0Z"/><path class="cls-14" d="M642.57,75h1.7l3.6,8.46h-1.93l-.77-1.88h-3.55l-.77,1.88H639ZM644.52,80l-1.12-2.72L642.29,80Z"/><path class="cls-14" d="M649,77.07h1.82V78a2.36,2.36,0,0,1,2-1,3,3,0,0,1,2.93,3.32v0a3,3,0,0,1-2.93,3.32,2.47,2.47,0,0,1-2-1v2.76H649Zm4.93,3.23v0a1.58,1.58,0,1,0-3.13,0v0a1.58,1.58,0,1,0,3.13,0Z"/><path class="cls-14" d="M656.7,82.28,657.79,81a3.86,3.86,0,0,0,2.51,1c.76,0,1.21-.3,1.21-.79v0c0-.47-.29-.71-1.69-1.07-1.69-.43-2.78-.9-2.78-2.57v0C657,76,658.26,75,660,75a4.86,4.86,0,0,1,3.12,1.07l-1,1.39a3.94,3.94,0,0,0-2.18-.83c-.71,0-1.08.32-1.08.73v0c0,.55.36.73,1.81,1.1,1.7.44,2.66,1.06,2.66,2.52v0c0,1.67-1.27,2.6-3.08,2.6A5.34,5.34,0,0,1,656.7,82.28Z"/></g></g><g id="Stof_2000" data-name="Stof 2000" class="cls-8"><g class="cls-8"><path class="cls-14" d="M714.43,82.28,715.52,81A3.85,3.85,0,0,0,718,82c.76,0,1.21-.3,1.21-.79v0c0-.47-.29-.71-1.69-1.07-1.69-.43-2.78-.9-2.78-2.57v0C714.77,76,716,75,717.71,75a4.86,4.86,0,0,1,3.12,1.07l-1,1.39a3.94,3.94,0,0,0-2.18-.83c-.71,0-1.08.32-1.08.73v0c0,.55.36.73,1.81,1.1,1.7.44,2.66,1.06,2.66,2.52v0c0,1.67-1.27,2.6-3.08,2.6A5.34,5.34,0,0,1,714.43,82.28Z"/><path class="cls-14" d="M722.74,81.68v-3H722V77.07h.77V75.43h1.82v1.64h1.51v1.56h-1.51v2.75c0,.42.18.62.59.62a1.86,1.86,0,0,0,.9-.23v1.46a2.69,2.69,0,0,1-1.44.37C723.49,83.61,722.74,83.16,722.74,81.68Z"/><path class="cls-14" d="M726.92,80.32v0a3.48,3.48,0,0,1,7,0v0a3.48,3.48,0,0,1-7,0Zm5.16,0v0a1.71,1.71,0,0,0-1.69-1.78,1.65,1.65,0,0,0-1.67,1.75v0a1.71,1.71,0,0,0,1.69,1.78A1.65,1.65,0,0,0,732.08,80.32Z"/><path class="cls-14" d="M735.52,78.63h-.76v-1.5h.76v-.41a2.12,2.12,0,0,1,.52-1.56,2,2,0,0,1,1.47-.5,4,4,0,0,1,1.29.18v1.51a2.31,2.31,0,0,0-.83-.16c-.42,0-.66.22-.66.7v.25h1.47v1.49h-1.45V83.5h-1.82Z"/><path class="cls-14" d="M743.16,82,746,79.75c1-.86,1.45-1.32,1.45-2a1,1,0,0,0-1.13-1.09c-.65,0-1.09.36-1.71,1.13l-1.29-1A3.5,3.5,0,0,1,746.4,75a2.59,2.59,0,0,1,2.89,2.59v0c0,1.4-.72,2.1-2.21,3.25l-1.37,1.06h3.66V83.5h-6.21Z"/><path class="cls-14" d="M750.7,79.33v0c0-2.44,1.51-4.34,3.74-4.34s3.72,1.88,3.72,4.32v0c0,2.43-1.5,4.34-3.74,4.34S750.7,81.76,750.7,79.33Zm5.56,0v0c0-1.52-.74-2.67-1.85-2.67s-1.82,1.12-1.82,2.65v0c0,1.54.73,2.67,1.85,2.67S756.26,80.85,756.26,79.33Z"/><path class="cls-14" d="M759.46,79.33v0c0-2.44,1.51-4.34,3.74-4.34s3.72,1.88,3.72,4.32v0c0,2.43-1.5,4.34-3.74,4.34S759.46,81.76,759.46,79.33Zm5.56,0v0c0-1.52-.74-2.67-1.85-2.67s-1.82,1.12-1.82,2.65v0c0,1.54.73,2.67,1.85,2.67S765,80.85,765,79.33Z"/><path class="cls-14" d="M768.21,79.33v0c0-2.44,1.51-4.34,3.74-4.34s3.72,1.88,3.72,4.32v0c0,2.43-1.5,4.34-3.74,4.34S768.21,81.76,768.21,79.33Zm5.56,0v0c0-1.52-.74-2.67-1.85-2.67s-1.82,1.12-1.82,2.65v0c0,1.54.73,2.67,1.85,2.67S773.78,80.85,773.78,79.33Z"/></g></g><g id="Morning_Train" data-name="Morning Train" class="cls-8"><g class="cls-8"><path class="cls-14" d="M828,74.51h2l2.21,3.55,2.21-3.55h2v8.4h-1.83V77.42L832.21,81h0l-2.34-3.55v5.45H828Z"/><path class="cls-14" d="M837.92,79.73v0a3.48,3.48,0,0,1,7,0v0a3.48,3.48,0,0,1-7,0Zm5.16,0v0a1.71,1.71,0,0,0-1.69-1.78,1.65,1.65,0,0,0-1.67,1.75v0a1.71,1.71,0,0,0,1.69,1.78A1.65,1.65,0,0,0,843.08,79.73Z"/><path class="cls-14" d="M846.2,76.48H848v1.3a2,2,0,0,1,2.05-1.42v1.91H850c-1.21,0-2,.73-2,2.27v2.38H846.2Z"/><path class="cls-14" d="M851.21,76.48H853v.91a2.27,2.27,0,0,1,1.88-1,2.11,2.11,0,0,1,2.18,2.39v4.16h-1.82V79.32c0-.86-.41-1.31-1.1-1.31s-1.14.44-1.14,1.31v3.59h-1.82Z"/><path class="cls-14" d="M858.73,74.15h1.92v1.62h-1.92Zm0,2.33h1.82v6.43h-1.82Z"/><path class="cls-14" d="M862.31,76.48h1.82v.91a2.27,2.27,0,0,1,1.88-1,2.11,2.11,0,0,1,2.18,2.39v4.16h-1.82V79.32c0-.86-.41-1.31-1.1-1.31s-1.14.44-1.14,1.31v3.59h-1.82Z"/><path class="cls-14" d="M869.83,84.18l.62-1.37a4.2,4.2,0,0,0,2.17.59c1.25,0,1.83-.6,1.83-1.75v-.31a2.52,2.52,0,0,1-2.1,1,2.82,2.82,0,0,1-2.85-3v0a2.83,2.83,0,0,1,2.85-3,2.6,2.6,0,0,1,2.07,1v-.84h1.82v5a3.45,3.45,0,0,1-.82,2.53,3.77,3.77,0,0,1-2.77.86A6.1,6.1,0,0,1,869.83,84.18Zm4.63-4.8v0a1.57,1.57,0,0,0-3.13,0v0a1.47,1.47,0,0,0,1.56,1.49A1.49,1.49,0,0,0,874.46,79.38Z"/><path class="cls-14" d="M883.64,76.21h-2.55v-1.7h7v1.7h-2.55v6.69h-1.85Z"/><path class="cls-14" d="M888.55,76.48h1.82v1.3a2,2,0,0,1,2.05-1.42v1.91h-.1c-1.21,0-2,.73-2,2.27v2.38h-1.82Z"/><path class="cls-14" d="M892.88,81.06v0c0-1.4,1.07-2.05,2.59-2.05a4.59,4.59,0,0,1,1.57.26v-.11c0-.76-.47-1.18-1.38-1.18a4.73,4.73,0,0,0-1.78.35l-.46-1.39a5.66,5.66,0,0,1,2.5-.52,3,3,0,0,1,2.17.72,2.8,2.8,0,0,1,.7,2.05v3.73H897v-.7a2.48,2.48,0,0,1-1.94.82A2,2,0,0,1,892.88,81.06Zm4.19-.42v-.32a2.83,2.83,0,0,0-1.16-.24c-.78,0-1.26.31-1.26.89v0c0,.49.41.78,1,.78C896.49,81.77,897.06,81.3,897.06,80.64Z"/><path class="cls-14" d="M900.4,74.15h1.92v1.62H900.4Zm0,2.33h1.82v6.43h-1.82Z"/><path class="cls-14" d="M904,76.48h1.82v.91a2.27,2.27,0,0,1,1.88-1,2.11,2.11,0,0,1,2.18,2.39v4.16h-1.82V79.32c0-.86-.41-1.31-1.1-1.31s-1.14.44-1.14,1.31v3.59H904Z"/></g></g><g id="Ellipse_4818" data-name="Ellipse 4818"><ellipse class="cls-4" cx="547.73" cy="79.5" rx="4.89" ry="5"/></g><g id="Ellipse_4819" data-name="Ellipse 4819"><ellipse class="cls-17" cx="697.73" cy="79.5" rx="4.89" ry="5"/></g><g id="Ellipse_4820" data-name="Ellipse 4820"><ellipse class="cls-15" cx="810.73" cy="78.77" rx="4.89" ry="5"/></g></g></svg>