<svg id="Layer_1" data-name="Layer 1" xmlns="http://www.w3.org/2000/svg" viewBox="0 0 212.82 30.83"><defs><style>.cls-1{fill:#fff;}.cls-2{fill:#fcfdff;}</style></defs><title>Morningscore logo</title><g id="Wordmark"><path class="cls-1" d="M65.33,18.64A8.07,8.07,0,0,1,66,15.4a7.71,7.71,0,0,1,1.74-2.48,7.51,7.51,0,0,1,2.59-1.59,9.18,9.18,0,0,1,6.37,0,7.56,7.56,0,0,1,2.6,1.59A7.68,7.68,0,0,1,81,15.4a7.91,7.91,0,0,1,.64,3.24A7.86,7.86,0,0,1,81,21.87a7.62,7.62,0,0,1-1.73,2.49A7.87,7.87,0,0,1,76.67,26a9.34,9.34,0,0,1-6.37,0,7.83,7.83,0,0,1-2.59-1.59A7.65,7.65,0,0,1,66,21.87,8,8,0,0,1,65.33,18.64Zm3.75,0a4.9,4.9,0,0,0,.3,1.69,4.26,4.26,0,0,0,.87,1.43,4.54,4.54,0,0,0,5.08,1,4.27,4.27,0,0,0,1.39-1,4.13,4.13,0,0,0,.88-1.43,5.13,5.13,0,0,0,.29-1.69A5,5,0,0,0,77.6,17a4.27,4.27,0,0,0-.88-1.44,4.42,4.42,0,0,0-1.39-1,4.79,4.79,0,0,0-3.69,0,4.53,4.53,0,0,0-1.39,1A4.41,4.41,0,0,0,69.38,17,4.81,4.81,0,0,0,69.08,18.64Z" transform="translate(-3.44 -2.84)"/><path class="cls-1" d="M107.83,6.05a2.15,2.15,0,0,1,.67-1.58,2.31,2.31,0,0,1,1.7-.67,2.48,2.48,0,0,1,1.74.64,2.06,2.06,0,0,1,.7,1.61,2.06,2.06,0,0,1-.7,1.6,2.49,2.49,0,0,1-1.74.65,2.31,2.31,0,0,1-1.7-.68A2.13,2.13,0,0,1,107.83,6.05Zm1,5.09h2.87a.44.44,0,0,1,.44.44V25.69a.45.45,0,0,1-.44.45H108.8a.45.45,0,0,1-.44-.45V11.58A.44.44,0,0,1,108.8,11.14Z" transform="translate(-3.44 -2.84)"/><path class="cls-1" d="M145.66,11.14V24.79a12.63,12.63,0,0,1-.5,3.67,7,7,0,0,1-1.55,2.79A6.88,6.88,0,0,1,141,33a10.25,10.25,0,0,1-3.78.63,14.19,14.19,0,0,1-4-.54,8.88,8.88,0,0,1-3.47-1.93L132,28.11a9.51,9.51,0,0,0,2.34,1.59,6.71,6.71,0,0,0,2.81.56,6.06,6.06,0,0,0,2.27-.37,3.81,3.81,0,0,0,1.47-1,4.11,4.11,0,0,0,.78-1.58,8.69,8.69,0,0,0,.23-2.05V24.14h-.06a5,5,0,0,1-2.16,1.64,7.28,7.28,0,0,1-2.75.54,7.59,7.59,0,0,1-3.06-.6,7.37,7.37,0,0,1-2.36-1.65A7.13,7.13,0,0,1,130,21.64a8.31,8.31,0,0,1-.53-3,9.2,9.2,0,0,1,.5-3.1,6.9,6.9,0,0,1,3.79-4.17,7.63,7.63,0,0,1,3.11-.61,7.07,7.07,0,0,1,3,.63,4.85,4.85,0,0,1,2.19,2h.06V11.14Zm-8,3a4.78,4.78,0,0,0-1.81.33,4,4,0,0,0-2.3,2.31,4.89,4.89,0,0,0-.32,1.83,4.26,4.26,0,0,0,.32,1.68,4.45,4.45,0,0,0,.92,1.38,4.58,4.58,0,0,0,1.41.94,4.44,4.44,0,0,0,1.75.34,4.78,4.78,0,0,0,1.86-.34,4.33,4.33,0,0,0,1.41-.93,3.91,3.91,0,0,0,.89-1.39,5,5,0,0,0,.31-1.75,4.36,4.36,0,0,0-1.19-3.18A4.29,4.29,0,0,0,137.66,14.14Z" transform="translate(-3.44 -2.84)"/><path class="cls-1" d="M156.7,15a.46.46,0,0,1-.64,0,3.38,3.38,0,0,0-2.65-1.18,3.16,3.16,0,0,0-1.47.38,1.27,1.27,0,0,0-.72,1.22,1,1,0,0,0,.6,1,6.47,6.47,0,0,0,1.5.53l2,.45a7.83,7.83,0,0,1,1.95.72,4.18,4.18,0,0,1,1.5,1.33,3.91,3.91,0,0,1,.6,2.31,4.25,4.25,0,0,1-.58,2.27,4.71,4.71,0,0,1-1.5,1.48,6.68,6.68,0,0,1-2.08.81,10.68,10.68,0,0,1-2.31.25,10,10,0,0,1-3.22-.5,6,6,0,0,1-2.31-1.47.44.44,0,0,1,0-.64l1.85-1.74a.44.44,0,0,1,.62,0,6.52,6.52,0,0,0,1.25,1,3.68,3.68,0,0,0,2,.52,4.14,4.14,0,0,0,.84-.09,2.85,2.85,0,0,0,.81-.32,1.78,1.78,0,0,0,.61-.54,1.4,1.4,0,0,0-.36-1.93,5,5,0,0,0-1.5-.6c-.6-.16-1.25-.31-1.95-.44a7.73,7.73,0,0,1-2-.66,4,4,0,0,1-1.5-1.26,3.71,3.71,0,0,1-.6-2.25,4.28,4.28,0,0,1,.52-2.17,4.52,4.52,0,0,1,1.36-1.52,5.87,5.87,0,0,1,1.93-.88,9.25,9.25,0,0,1,2.22-.28,9,9,0,0,1,3,.52,4.76,4.76,0,0,1,2.11,1.43.44.44,0,0,1,0,.61Z" transform="translate(-3.44 -2.84)"/><path class="cls-1" d="M171.61,15.33a.44.44,0,0,1-.61,0,6,6,0,0,0-1.07-.8,3,3,0,0,0-1.47-.4,4.4,4.4,0,0,0-1.85.37,4.53,4.53,0,0,0-1.39,1,4.41,4.41,0,0,0-.87,1.44,4.81,4.81,0,0,0-.3,1.69,4.9,4.9,0,0,0,.3,1.69,4.26,4.26,0,0,0,.87,1.43,4.31,4.31,0,0,0,3.24,1.38,3.69,3.69,0,0,0,1.62-.36,3.3,3.3,0,0,0,1-.69.45.45,0,0,1,.65,0l1.86,2a.45.45,0,0,1,0,.64,8.14,8.14,0,0,1-1,.66,9.36,9.36,0,0,1-2.93,1,6.8,6.8,0,0,1-1.18.11,9.11,9.11,0,0,1-3.19-.56,7.83,7.83,0,0,1-2.59-1.59,7.65,7.65,0,0,1-1.74-2.49,8.5,8.5,0,0,1,0-6.47,7.71,7.71,0,0,1,1.74-2.48,7.51,7.51,0,0,1,2.59-1.59,8.89,8.89,0,0,1,3.19-.57,8.26,8.26,0,0,1,2.89.55,6.49,6.49,0,0,1,2.23,1.41.45.45,0,0,1,0,.64Z" transform="translate(-3.44 -2.84)"/><path class="cls-1" d="M173.8,18.64a7.69,7.69,0,0,1,2.37-5.72,7.56,7.56,0,0,1,2.6-1.59,9.18,9.18,0,0,1,6.37,0,7.56,7.56,0,0,1,2.6,1.59,7.69,7.69,0,0,1,2.37,5.72,7.86,7.86,0,0,1-.64,3.23,7.77,7.77,0,0,1-1.73,2.49,7.87,7.87,0,0,1-2.6,1.59,9.34,9.34,0,0,1-6.37,0,7.87,7.87,0,0,1-2.6-1.59,7.77,7.77,0,0,1-1.73-2.49A7.86,7.86,0,0,1,173.8,18.64Zm3.75,0a4.9,4.9,0,0,0,.3,1.69,4.11,4.11,0,0,0,.87,1.43,4.43,4.43,0,0,0,6.47,0,4.11,4.11,0,0,0,.87-1.43,4.9,4.9,0,0,0,.3-1.69,4.81,4.81,0,0,0-.3-1.69,4.24,4.24,0,0,0-.87-1.44,4.53,4.53,0,0,0-1.39-1,4.79,4.79,0,0,0-3.69,0,4.53,4.53,0,0,0-1.39,1,4.24,4.24,0,0,0-.87,1.44A4.81,4.81,0,0,0,177.55,18.64Z" transform="translate(-3.44 -2.84)"/><path class="cls-1" d="M204.83,20a3.82,3.82,0,0,0,1.31,2.62,4.09,4.09,0,0,0,2.72.94,4.44,4.44,0,0,0,2.36-.58,6.23,6.23,0,0,0,1.41-1.15.43.43,0,0,1,.59-.05l2,1.5a.45.45,0,0,1,.06.65,7.36,7.36,0,0,1-2.63,1.94,8.61,8.61,0,0,1-3.4.69,9.11,9.11,0,0,1-3.19-.56,7.73,7.73,0,0,1-2.59-1.59,7.65,7.65,0,0,1-1.74-2.49,7.86,7.86,0,0,1-.64-3.23,7.91,7.91,0,0,1,.64-3.24,7.71,7.71,0,0,1,1.74-2.48,7.42,7.42,0,0,1,2.59-1.59,8.89,8.89,0,0,1,3.19-.57,7.4,7.4,0,0,1,2.86.55,6.14,6.14,0,0,1,2.21,1.58,7.11,7.11,0,0,1,1.44,2.55,10.89,10.89,0,0,1,.52,3.48v.59a.45.45,0,0,1-.45.44Zm7.69-2.81a3.54,3.54,0,0,0-1-2.61,3.86,3.86,0,0,0-2.78-.95,3.68,3.68,0,0,0-2.68,1,4.42,4.42,0,0,0-1.2,2.6Z" transform="translate(-3.44 -2.84)"/><path class="cls-1" d="M91.25,14.11c-.43,0-.86,0-1.29,0A2.93,2.93,0,0,0,87.19,17c0,2.82,0,5.64,0,8.46,0,.4,0,.4-.39.4H83.72c-.22,0-.3-.06-.3-.29,0-2.9,0-5.79,0-8.69a6.37,6.37,0,0,1,1.87-4.59,5.91,5.91,0,0,1,3.54-1.7c.71-.08,1.43-.05,2.15-.06.16,0,.28,0,.28.25V14A.41.41,0,0,1,91.25,14.11Z" transform="translate(-3.44 -2.84)"/><path class="cls-1" d="M199.75,14.2c-.44,0-.87,0-1.29,0a2.94,2.94,0,0,0-2.78,2.93c0,2.82,0,5.64,0,8.47,0,.39,0,.39-.39.39h-3.07c-.23,0-.31-.07-.31-.3,0-2.9,0-5.79,0-8.69a6.37,6.37,0,0,1,1.87-4.59,5.94,5.94,0,0,1,3.55-1.7c.7-.08,1.43-.05,2.14-.06.16,0,.29,0,.29.25,0,1.07,0,2.14,0,3.21C199.77,14.15,199.75,14.17,199.75,14.2Z" transform="translate(-3.44 -2.84)"/><path class="cls-1" d="M114.15,21.22c0-1.45,0-2.9,0-4.35a6.39,6.39,0,0,1,5.22-6.14,7.56,7.56,0,0,1,5.54.87,6.36,6.36,0,0,1,.92.81,5,5,0,0,1,.73.73,6.21,6.21,0,0,1,1.16,3.24c0,.56.06,1.13.06,1.7,0,2.54,0,5.09,0,7.64,0,.27-.06.37-.36.37q-1.59,0-3.18,0c-.27,0-.33-.09-.33-.34,0-2.91,0-5.82,0-8.73a2.49,2.49,0,0,0-1.36-2.4,3.27,3.27,0,0,0-4.21,1.12,3.35,3.35,0,0,0-.38,1.64v8.28c0,.42,0,.42-.41.42-1,0-2.06,0-3.09,0-.25,0-.33-.08-.33-.33,0-1.51,0-3,0-4.54Z" transform="translate(-3.44 -2.84)"/><path class="cls-1" d="M63.37,17.84c0-.57,0-1.14,0-1.71a6.28,6.28,0,0,0-1.16-3.26,4.89,4.89,0,0,0-.71-.73,6.29,6.29,0,0,0-.91-.81,7.36,7.36,0,0,0-5.48-.88,6.41,6.41,0,0,0-3.24,1.71l0,0a5.8,5.8,0,0,0-.91-.81,7.34,7.34,0,0,0-5.47-.88,6.39,6.39,0,0,0-5.16,6.17c0,1.46,0,2.92,0,4.38h0c0,1.52,0,3,0,4.57,0,.24.07.32.32.32,1,0,2,0,3.06,0,.4,0,.41,0,.41-.42,0-2.78,0-5.56,0-8.33a3.25,3.25,0,0,1,.37-1.65,3.19,3.19,0,0,1,4.15-1.13,2.53,2.53,0,0,1,1.36,2.41v.75c0,1.16,0,2.32,0,3.48h0c0,1.52,0,3,0,4.57,0,.22.06.3.25.32h.43c.59,0,1.19,0,1.78,0h1c.29,0,.36-.09.36-.37q0-3.84,0-7.68c0-.38,0-.76,0-1.13A3.06,3.06,0,0,1,54,15.49a3.21,3.21,0,0,1,4.16-1.13,2.51,2.51,0,0,1,1.35,2.41c0,2.93,0,5.86,0,8.78,0,.26.07.35.33.34q1.57,0,3.15,0c.29,0,.35-.09.35-.37C63.37,23,63.38,20.4,63.37,17.84Z" transform="translate(-3.44 -2.84)"/><path class="cls-1" d="M92.59,21.16c0-1.45,0-2.9,0-4.35a6.39,6.39,0,0,1,5.21-6.14,7.55,7.55,0,0,1,5.54.87,5.94,5.94,0,0,1,.93.81,5,5,0,0,1,.72.73,6.22,6.22,0,0,1,1.17,3.24c0,.56,0,1.13.06,1.7,0,2.54,0,5.09,0,7.64,0,.27-.06.37-.36.37q-1.59,0-3.18,0c-.26,0-.33-.09-.33-.34,0-2.91,0-5.82,0-8.73a2.5,2.5,0,0,0-1.37-2.4,3.27,3.27,0,0,0-4.21,1.12,3.34,3.34,0,0,0-.37,1.64c0,2.76,0,5.52,0,8.28,0,.42,0,.42-.41.42-1,0-2.07,0-3.1,0-.25,0-.32-.09-.32-.33,0-1.51,0-3,0-4.54Z" transform="translate(-3.44 -2.84)"/></g><path class="cls-2" d="M18.86,2.84A15.42,15.42,0,1,0,34.27,18.25,15.41,15.41,0,0,0,18.86,2.84Zm-.57,29A11.94,11.94,0,1,1,30.23,19.85,11.94,11.94,0,0,1,18.29,31.79Z" transform="translate(-3.44 -2.84)"/><circle class="cls-1" cx="17.2" cy="16.36" r="6.58"/></svg>