<svg id="Layer_1" data-name="Layer 1" xmlns="http://www.w3.org/2000/svg" viewBox="0 0 212.82 30.83"><defs><style>.cls-1{fill:#3598db;}</style></defs><title>Morningscore logo</title><g id="Wordmark"><path class="cls-1" d="M62,15.83a7.89,7.89,0,0,1,.64-3.23,7.68,7.68,0,0,1,1.73-2.48,7.83,7.83,0,0,1,2.59-1.59,9.31,9.31,0,0,1,6.36,0,7.83,7.83,0,0,1,2.59,1.59,7.53,7.53,0,0,1,1.73,2.48,7.89,7.89,0,0,1,.64,3.23,7.86,7.86,0,0,1-.64,3.23,7.43,7.43,0,0,1-1.73,2.48,7.51,7.51,0,0,1-2.59,1.59,9.31,9.31,0,0,1-6.36,0,7.43,7.43,0,0,1-4.32-4.07A7.86,7.86,0,0,1,62,15.83Zm3.74,0a4.9,4.9,0,0,0,.3,1.69A4.4,4.4,0,0,0,73.32,19a4.2,4.2,0,0,0,.87-1.43,4.9,4.9,0,0,0,.3-1.69,4.8,4.8,0,0,0-.3-1.68,4.24,4.24,0,0,0-.87-1.44,4.53,4.53,0,0,0-1.39-1,4.76,4.76,0,0,0-3.68,0,4.53,4.53,0,0,0-1.39,1A4.41,4.41,0,0,0,66,14.15,4.8,4.8,0,0,0,65.69,15.83Z"/><path class="cls-1" d="M104.37,3.26A2.17,2.17,0,0,1,105,1.69a2.31,2.31,0,0,1,1.7-.67,2.47,2.47,0,0,1,1.73.63,2.1,2.1,0,0,1,.71,1.61,2.09,2.09,0,0,1-.71,1.61,2.48,2.48,0,0,1-1.73.64,2.35,2.35,0,0,1-1.7-.67A2.2,2.2,0,0,1,104.37,3.26Zm1,5.09h2.85a.44.44,0,0,1,.45.44V22.88a.45.45,0,0,1-.45.44h-2.85a.45.45,0,0,1-.45-.44V8.79A.44.44,0,0,1,105.35,8.35Z"/><path class="cls-1" d="M142.14,8.35V22a12.6,12.6,0,0,1-.5,3.66,7.07,7.07,0,0,1-1.55,2.78,6.92,6.92,0,0,1-2.63,1.76,10.47,10.47,0,0,1-3.78.62,14.24,14.24,0,0,1-4-.53,8.91,8.91,0,0,1-3.46-1.93l2.25-3.06a9,9,0,0,0,2.34,1.59,6.51,6.51,0,0,0,2.8.56,6,6,0,0,0,2.26-.37,3.57,3.57,0,0,0,1.47-1,4.07,4.07,0,0,0,.78-1.57,8.19,8.19,0,0,0,.23-2.05V21.32h-.06A5,5,0,0,1,136.18,23a7.28,7.28,0,0,1-2.75.54A7.29,7.29,0,0,1,128,21.26a7.22,7.22,0,0,1-1.51-2.43,8.53,8.53,0,0,1-.53-3,9.44,9.44,0,0,1,.5-3.09A7.08,7.08,0,0,1,128,10.25a6.73,6.73,0,0,1,2.32-1.67,7.43,7.43,0,0,1,3.1-.61,7.22,7.22,0,0,1,3,.62,4.89,4.89,0,0,1,2.18,2h.06V8.35Zm-8,3a4.78,4.78,0,0,0-1.81.33,4.13,4.13,0,0,0-1.38.9,4,4,0,0,0-.91,1.41,4.83,4.83,0,0,0-.33,1.82,4.27,4.27,0,0,0,.33,1.68,4.45,4.45,0,0,0,.92,1.38,4.48,4.48,0,0,0,3.15,1.28,4.78,4.78,0,0,0,1.86-.35,4.16,4.16,0,0,0,1.4-.92,3.78,3.78,0,0,0,.89-1.39,4.76,4.76,0,0,0,.31-1.74,4.13,4.13,0,0,0-4.43-4.4Z"/><path class="cls-1" d="M153.15,12.18a.45.45,0,0,1-.63,0A3.37,3.37,0,0,0,149.87,11a3.07,3.07,0,0,0-1.46.37,1.27,1.27,0,0,0-.72,1.22,1,1,0,0,0,.59,1,6.35,6.35,0,0,0,1.5.53l1.95.46a7.71,7.71,0,0,1,2,.71,4.33,4.33,0,0,1,1.49,1.33,3.91,3.91,0,0,1,.6,2.31,4.22,4.22,0,0,1-.58,2.26,4.42,4.42,0,0,1-1.5,1.48,6.3,6.3,0,0,1-2.07.81,10.68,10.68,0,0,1-2.31.25,10,10,0,0,1-3.21-.5,6,6,0,0,1-2.31-1.47.45.45,0,0,1,0-.64l1.85-1.73a.44.44,0,0,1,.62,0,6.52,6.52,0,0,0,1.25,1,3.75,3.75,0,0,0,2,.51,4.14,4.14,0,0,0,.84-.09,2.83,2.83,0,0,0,.81-.31,2,2,0,0,0,.61-.55,1.24,1.24,0,0,0,.23-.76,1.27,1.27,0,0,0-.59-1.16,5,5,0,0,0-1.5-.6c-.6-.16-1.25-.3-1.94-.44a7.35,7.35,0,0,1-2-.66,4,4,0,0,1-1.5-1.26,3.7,3.7,0,0,1-.59-2.24,4.29,4.29,0,0,1,1.87-3.68,5.78,5.78,0,0,1,1.93-.88,8.79,8.79,0,0,1,5.18.24A4.79,4.79,0,0,1,155,9.91a.44.44,0,0,1,0,.62Z"/><path class="cls-1" d="M168,12.53a.44.44,0,0,1-.61,0,5.45,5.45,0,0,0-1.07-.79,3,3,0,0,0-1.47-.41,4.35,4.35,0,0,0-1.84.37,4.53,4.53,0,0,0-1.39,1,4.41,4.41,0,0,0-.87,1.44,4.8,4.8,0,0,0-.3,1.68,4.9,4.9,0,0,0,.3,1.69,4.25,4.25,0,0,0,4.1,2.8,3.66,3.66,0,0,0,1.62-.36,3.47,3.47,0,0,0,1-.68.44.44,0,0,1,.65,0l1.86,2a.44.44,0,0,1,0,.63,5.44,5.44,0,0,1-1,.66,8,8,0,0,1-1.48.65,8.32,8.32,0,0,1-1.43.36,8.08,8.08,0,0,1-1.19.11,9.09,9.09,0,0,1-3.18-.56,7.43,7.43,0,0,1-4.32-4.07,7.86,7.86,0,0,1-.64-3.23,7.89,7.89,0,0,1,.64-3.23,7.68,7.68,0,0,1,1.73-2.48,7.83,7.83,0,0,1,2.59-1.59A9.09,9.09,0,0,1,164.89,8a8,8,0,0,1,2.89.55A6.48,6.48,0,0,1,170,9.92a.45.45,0,0,1,0,.64Z"/><path class="cls-1" d="M170.23,15.83a7.89,7.89,0,0,1,.64-3.23,7.53,7.53,0,0,1,1.73-2.48,7.73,7.73,0,0,1,2.59-1.59,9.31,9.31,0,0,1,6.36,0,7.43,7.43,0,0,1,4.32,4.07,8.06,8.06,0,0,1,.64,3.23,8,8,0,0,1-.64,3.23,7.73,7.73,0,0,1-1.73,2.48,7.51,7.51,0,0,1-2.59,1.59,9.31,9.31,0,0,1-6.36,0,7.43,7.43,0,0,1-4.32-4.07A7.86,7.86,0,0,1,170.23,15.83Zm3.74,0a4.9,4.9,0,0,0,.3,1.69,4,4,0,0,0,.87,1.43,4.27,4.27,0,0,0,1.39,1,4.76,4.76,0,0,0,3.68,0,4.25,4.25,0,0,0,2.26-2.43,4.89,4.89,0,0,0,.29-1.69,4.79,4.79,0,0,0-.29-1.68,4.41,4.41,0,0,0-.87-1.44,4.53,4.53,0,0,0-1.39-1,4.76,4.76,0,0,0-3.68,0,4.42,4.42,0,0,0-1.39,1,4.09,4.09,0,0,0-.87,1.44A4.8,4.8,0,0,0,174,15.83Z"/><path class="cls-1" d="M201.2,17.14a3.82,3.82,0,0,0,1.31,2.62,4.12,4.12,0,0,0,2.71.94,4.51,4.51,0,0,0,2.36-.58A6.76,6.76,0,0,0,209,19a.43.43,0,0,1,.59,0l2,1.49a.45.45,0,0,1,.06.65A7.48,7.48,0,0,1,209,23a8.78,8.78,0,0,1-3.4.68,9.09,9.09,0,0,1-3.18-.56,7.51,7.51,0,0,1-2.59-1.59,7.43,7.43,0,0,1-1.73-2.48,7.86,7.86,0,0,1-.64-3.23,7.89,7.89,0,0,1,.64-3.23,7.53,7.53,0,0,1,1.73-2.48,7.83,7.83,0,0,1,2.59-1.59A9.09,9.09,0,0,1,205.6,8a7.14,7.14,0,0,1,2.85.55,6.15,6.15,0,0,1,2.22,1.57,7.38,7.38,0,0,1,1.43,2.54,10.61,10.61,0,0,1,.52,3.48v.59a.44.44,0,0,1-.44.44Zm7.67-2.81a3.49,3.49,0,0,0-1-2.6,3.86,3.86,0,0,0-2.77-1,3.64,3.64,0,0,0-2.67,1,4.33,4.33,0,0,0-1.2,2.58Z"/><path class="cls-1" d="M87.83,11.31c-.44,0-.86,0-1.29,0a2.93,2.93,0,0,0-2.77,2.93c0,2.81,0,5.63,0,8.45,0,.39,0,.39-.39.39H80.31c-.22,0-.31-.07-.31-.3,0-2.89,0-5.78,0-8.67a6.37,6.37,0,0,1,1.87-4.59,5.9,5.9,0,0,1,3.54-1.69,19.12,19.12,0,0,1,2.14-.06c.16,0,.29,0,.29.25,0,1.07,0,2.13,0,3.2C87.85,11.26,87.83,11.28,87.83,11.31Z"/><path class="cls-1" d="M196.13,11.4c-.44,0-.86,0-1.29,0a2.93,2.93,0,0,0-2.77,2.93c0,2.81,0,5.63,0,8.45,0,.39,0,.39-.39.39h-3.06c-.22,0-.31-.07-.31-.3,0-2.89,0-5.78,0-8.67a6.37,6.37,0,0,1,1.87-4.59,6,6,0,0,1,3.54-1.69,19.12,19.12,0,0,1,2.14-.06c.16,0,.29,0,.29.25,0,1.07,0,2.13,0,3.2C196.15,11.35,196.13,11.37,196.13,11.4Z"/><path class="cls-1" d="M110.68,18.41c0-1.45,0-2.9,0-4.35a6.35,6.35,0,0,1,5.2-6.12,7.48,7.48,0,0,1,5.53.87,5.39,5.39,0,0,1,.92.8,5.59,5.59,0,0,1,.73.73,6.24,6.24,0,0,1,1.16,3.24c0,.56.06,1.13.06,1.69,0,2.54,0,5.09,0,7.63,0,.27-.06.37-.36.37q-1.59,0-3.18,0c-.26,0-.33-.09-.33-.34,0-2.9,0-5.81,0-8.72a2.5,2.5,0,0,0-1.37-2.39,3.27,3.27,0,0,0-4.2,1.12,3.31,3.31,0,0,0-.37,1.63v8.27c0,.42,0,.42-.41.42-1,0-2.06,0-3.09,0-.25,0-.32-.08-.32-.33,0-1.51,0-3,0-4.53Z"/><path class="cls-1" d="M60,15c0-.57,0-1.14-.06-1.7a6.39,6.39,0,0,0-1.15-3.26,6.19,6.19,0,0,0-.72-.73,6.35,6.35,0,0,0-.91-.81,7.31,7.31,0,0,0-5.46-.87,6.41,6.41,0,0,0-3.24,1.71l0,0a6.86,6.86,0,0,0-.9-.81,7.34,7.34,0,0,0-5.47-.87,6.38,6.38,0,0,0-5.15,6.16c0,1.45,0,2.91,0,4.36h0v4.57c0,.24.07.32.31.32,1,0,2,0,3.06,0,.4,0,.4,0,.4-.42V14.33A3.41,3.41,0,0,1,41,12.68a3.2,3.2,0,0,1,4.15-1.12A2.51,2.51,0,0,1,46.54,14v.75c0,1.15,0,2.31,0,3.46h0c0,1.53,0,3.05,0,4.57,0,.22.06.31.25.32H50c.29,0,.36-.09.36-.37q0-3.82,0-7.67c0-.37,0-.75,0-1.13a3.16,3.16,0,0,1,.35-1.22,3.2,3.2,0,0,1,4.15-1.12A2.53,2.53,0,0,1,56.18,14c0,2.92,0,5.84,0,8.76,0,.26.07.35.33.34,1.05,0,2.09,0,3.14,0,.29,0,.36-.09.35-.37C60,20.15,60,17.59,60,15Z"/><path class="cls-1" d="M89.16,18.35c0-1.45,0-2.9,0-4.35a6.36,6.36,0,0,1,5.21-6.12,7.49,7.49,0,0,1,5.53.87,6.28,6.28,0,0,1,.92.8,5.51,5.51,0,0,1,.72.73,6.24,6.24,0,0,1,1.16,3.24c.05.56.06,1.13.06,1.69,0,2.54,0,5.09,0,7.63,0,.27-.06.37-.36.37-1.06,0-2.12,0-3.17,0-.27,0-.34-.09-.34-.34,0-2.9,0-5.81,0-8.72a2.5,2.5,0,0,0-1.36-2.39,3.27,3.27,0,0,0-4.2,1.12A3.21,3.21,0,0,0,93,14.51v8.27c0,.42,0,.42-.41.42-1,0-2.06,0-3.09,0-.25,0-.32-.08-.32-.33,0-1.51,0-3,0-4.53Z"/></g><path class="cls-1" d="M15.56.06A15.39,15.39,0,1,0,31,15.45,15.39,15.39,0,0,0,15.56.06ZM15,29A11.92,11.92,0,1,1,26.91,17,11.92,11.92,0,0,1,15,29Z"/><circle class="cls-1" cx="17.34" cy="16.38" r="6.57"/></svg>